solid Exported from Blender-2.93.4
facet normal -0.371050 0.071148 -0.925883
outer loop
vertex 0.005626 -0.019787 -0.003133
vertex 0.009332 -0.036453 -0.005899
vertex -0.000527 -0.020718 -0.000738
endloop
endfacet
facet normal -0.377665 0.066244 -0.923570
outer loop
vertex -0.000527 -0.020718 -0.000738
vertex 0.009332 -0.036453 -0.005899
vertex -0.005682 -0.034581 0.000375
endloop
endfacet
facet normal -0.373592 0.095777 -0.922635
outer loop
vertex -0.002270 -0.037706 -0.001331
vertex -0.005682 -0.034581 0.000375
vertex 0.009332 -0.036453 -0.005899
endloop
endfacet
facet normal -0.377535 0.066191 -0.923626
outer loop
vertex -0.000527 -0.020718 -0.000738
vertex -0.005682 -0.034581 0.000375
vertex -0.010640 -0.025636 0.003043
endloop
endfacet
facet normal -0.371526 0.051235 -0.927008
outer loop
vertex -0.000527 -0.020718 -0.000738
vertex -0.010640 -0.025636 0.003043
vertex -0.008322 -0.018481 0.002509
endloop
endfacet
facet normal -0.398707 0.060934 -0.915052
outer loop
vertex -0.008322 -0.018481 0.002509
vertex -0.010640 -0.025636 0.003043
vertex -0.012108 -0.016047 0.004321
endloop
endfacet
facet normal 0.362183 -0.089096 0.927839
outer loop
vertex -0.002822 -0.019992 0.002582
vertex -0.010525 -0.024222 0.005183
vertex -0.005979 -0.033556 0.002512
endloop
endfacet
facet normal 0.368682 -0.090595 0.925130
outer loop
vertex -0.002822 -0.019992 0.002582
vertex -0.005979 -0.033556 0.002512
vertex 0.001641 -0.020143 0.000789
endloop
endfacet
facet normal 0.414115 -0.119328 0.902369
outer loop
vertex 0.001641 -0.020143 0.000789
vertex -0.005979 -0.033556 0.002512
vertex 0.006188 -0.019417 -0.001202
endloop
endfacet
facet normal 0.376457 -0.120821 0.918522
outer loop
vertex -0.010525 -0.024222 0.005183
vertex -0.002822 -0.019992 0.002582
vertex -0.007203 -0.018919 0.004519
endloop
endfacet
facet normal 0.349914 -0.102611 0.931145
outer loop
vertex -0.010525 -0.024222 0.005183
vertex -0.007203 -0.018919 0.004519
vertex -0.011231 -0.016772 0.006269
endloop
endfacet
facet normal 0.376233 -0.081322 0.922949
outer loop
vertex 0.006188 -0.019417 -0.001202
vertex -0.005979 -0.033556 0.002512
vertex 0.004146 -0.037837 -0.001993
endloop
endfacet
facet normal 0.362993 -0.114514 0.924728
outer loop
vertex 0.004146 -0.037837 -0.001993
vertex -0.005979 -0.033556 0.002512
vertex -0.002128 -0.037958 0.000455
endloop
endfacet
facet normal 0.361057 -0.079904 0.929114
outer loop
vertex 0.006188 -0.019417 -0.001202
vertex 0.004146 -0.037837 -0.001993
vertex 0.009995 -0.036465 -0.004148
endloop
endfacet
facet normal 0.123650 -0.356868 -0.925935
outer loop
vertex 0.014324 0.014800 -0.003133
vertex 0.026905 0.026336 -0.005899
vertex 0.018203 0.009937 -0.000741
endloop
endfacet
facet normal 0.134266 -0.361472 -0.922665
outer loop
vertex 0.018203 0.009937 -0.000741
vertex 0.026905 0.026336 -0.005899
vertex 0.032572 0.011711 0.000655
endloop
endfacet
facet normal 0.134135 -0.359921 -0.923290
outer loop
vertex 0.018203 0.009937 -0.000741
vertex 0.032572 0.011711 0.000655
vertex 0.027130 0.003109 0.003218
endloop
endfacet
facet normal 0.098921 -0.374788 -0.921818
outer loop
vertex 0.026905 0.026336 -0.005899
vertex 0.033790 0.016917 -0.001331
vertex 0.032572 0.011711 0.000655
endloop
endfacet
facet normal 0.146162 -0.346181 -0.926712
outer loop
vertex 0.018203 0.009937 -0.000741
vertex 0.027130 0.003109 0.003218
vertex 0.020170 0.002126 0.002487
endloop
endfacet
facet normal 0.149062 -0.375626 -0.914705
outer loop
vertex 0.020170 0.002126 0.002487
vertex 0.027130 0.003109 0.003218
vertex 0.019957 -0.002423 0.004320
endloop
endfacet
facet normal -0.107763 0.365722 0.924464
outer loop
vertex 0.018978 0.007034 0.002871
vertex 0.030522 0.009000 0.003439
vertex 0.026589 0.026736 -0.004036
endloop
endfacet
facet normal -0.115847 0.368162 0.922516
outer loop
vertex 0.018978 0.007034 0.002871
vertex 0.026589 0.026736 -0.004036
vertex 0.016212 0.012011 0.000538
endloop
endfacet
facet normal -0.152691 0.389679 0.908205
outer loop
vertex 0.016212 0.012011 0.000538
vertex 0.026589 0.026736 -0.004036
vertex 0.013770 0.015210 -0.001246
endloop
endfacet
facet normal -0.102709 0.332257 0.937580
outer loop
vertex 0.030522 0.009000 0.003439
vertex 0.018978 0.007034 0.002871
vertex 0.023496 0.000250 0.005770
endloop
endfacet
facet normal -0.048770 0.364851 0.929788
outer loop
vertex 0.023496 0.000250 0.005770
vertex 0.018978 0.007034 0.002871
vertex 0.020630 -0.000896 0.006070
endloop
endfacet
facet normal -0.125901 0.361443 0.923855
outer loop
vertex 0.026589 0.026736 -0.004036
vertex 0.030522 0.009000 0.003439
vertex 0.033534 0.017229 0.000630
endloop
endfacet
facet normal 0.630974 0.775723 -0.011239
outer loop
vertex 0.010436 0.017229 -0.013184
vertex 0.013116 0.015222 -0.001226
vertex 0.013660 0.014741 -0.003878
endloop
endfacet
facet normal 0.659270 0.751401 -0.027545
outer loop
vertex 0.010436 0.017229 -0.013184
vertex 0.013660 0.014741 -0.003878
vertex 0.015652 0.012652 -0.013184
endloop
endfacet
facet normal 0.771580 0.635736 0.022466
outer loop
vertex 0.015652 0.012652 -0.013184
vertex 0.013660 0.014741 -0.003878
vertex 0.017306 0.010228 -0.001396
endloop
endfacet
facet normal 0.894192 0.446417 -0.033665
outer loop
vertex 0.015652 0.012652 -0.013184
vertex 0.017306 0.010228 -0.001396
vertex 0.019637 0.004672 -0.013184
endloop
endfacet
facet normal 0.920315 0.391171 -0.002456
outer loop
vertex 0.019637 0.004672 -0.013184
vertex 0.017306 0.010228 -0.001396
vertex 0.019493 0.005098 0.000928
endloop
endfacet
facet normal 0.974649 0.223716 0.003159
outer loop
vertex 0.019637 0.004672 -0.013184
vertex 0.019493 0.005098 0.000928
vertex 0.020170 0.002126 0.002487
endloop
endfacet
facet normal 0.999425 0.000798 -0.033897
outer loop
vertex 0.019637 0.004672 -0.013184
vertex 0.020170 0.002126 0.002487
vertex 0.019644 -0.004192 -0.013184
endloop
endfacet
facet normal 0.998573 -0.051886 -0.012629
outer loop
vertex 0.019644 -0.004192 -0.013184
vertex 0.020170 0.002126 0.002487
vertex 0.019957 -0.002423 0.004320
endloop
endfacet
facet normal 0.964132 -0.265250 0.009553
outer loop
vertex 0.019644 -0.004192 -0.013184
vertex 0.019957 -0.002423 0.004320
vertex 0.019829 -0.002873 0.004739
endloop
endfacet
facet normal 0.986640 -0.162908 0.001793
outer loop
vertex 0.019644 -0.004192 -0.013184
vertex 0.019829 -0.002873 0.004739
vertex 0.019605 -0.004095 0.016832
endloop
endfacet
facet normal 0.928925 -0.370261 0.002387
outer loop
vertex 0.019644 -0.004192 -0.013184
vertex 0.019605 -0.004095 0.016832
vertex 0.016750 -0.011257 0.016832
endloop
endfacet
facet normal 0.912263 -0.409517 -0.008459
outer loop
vertex 0.019644 -0.004192 -0.013184
vertex 0.016750 -0.011257 0.016832
vertex 0.016010 -0.012287 -0.013184
endloop
endfacet
facet normal 0.695895 -0.718105 0.007472
outer loop
vertex 0.016010 -0.012287 -0.013184
vertex 0.016750 -0.011257 0.016832
vertex 0.011334 -0.016505 0.016832
endloop
endfacet
facet normal 0.616488 -0.787229 -0.014611
outer loop
vertex 0.016010 -0.012287 -0.013184
vertex 0.011334 -0.016505 0.016832
vertex 0.008249 -0.018365 -0.013184
endloop
endfacet
facet normal 0.415386 -0.909543 0.013639
outer loop
vertex 0.008249 -0.018365 -0.013184
vertex 0.011334 -0.016505 0.016832
vertex 0.004341 -0.019699 0.016832
endloop
endfacet
facet normal 0.378046 -0.925752 0.008054
outer loop
vertex 0.008249 -0.018365 -0.013184
vertex 0.004341 -0.019699 0.016832
vertex 0.006668 -0.018906 -0.001243
endloop
endfacet
facet normal 0.234007 -0.972154 -0.012529
outer loop
vertex 0.006668 -0.018906 -0.001243
vertex 0.004341 -0.019699 0.016832
vertex 0.001641 -0.020143 0.000789
endloop
endfacet
facet normal -0.012988 -0.999472 0.029789
outer loop
vertex 0.001641 -0.020143 0.000789
vertex 0.004341 -0.019699 0.016832
vertex -0.004509 -0.019584 0.016832
endloop
endfacet
facet normal -0.023330 -0.999394 0.025822
outer loop
vertex 0.001641 -0.020143 0.000789
vertex -0.004509 -0.019584 0.016832
vertex -0.002822 -0.019992 0.002582
endloop
endfacet
facet normal -0.238110 -0.971238 -0.000420
outer loop
vertex -0.002822 -0.019992 0.002582
vertex -0.004509 -0.019584 0.016832
vertex -0.007203 -0.018919 0.004519
endloop
endfacet
facet normal -0.403741 -0.914046 0.038898
outer loop
vertex -0.007203 -0.018919 0.004519
vertex -0.004509 -0.019584 0.016832
vertex -0.011269 -0.016599 0.016832
endloop
endfacet
facet normal -0.465889 -0.884750 0.012856
outer loop
vertex -0.007203 -0.018919 0.004519
vertex -0.011269 -0.016599 0.016832
vertex -0.011231 -0.016772 0.006269
endloop
endfacet
facet normal -0.666807 -0.745166 0.009838
outer loop
vertex -0.011231 -0.016772 0.006269
vertex -0.011269 -0.016599 0.016832
vertex -0.011924 -0.016155 0.006057
endloop
endfacet
facet normal -0.647738 -0.761821 0.007992
outer loop
vertex -0.011924 -0.016155 0.006057
vertex -0.011269 -0.016599 0.016832
vertex -0.012429 -0.015739 0.004740
endloop
endfacet
facet normal -0.988277 0.112839 0.102843
outer loop
vertex -0.012429 -0.015739 0.004740
vertex -0.011269 -0.016599 0.016832
vertex -0.014129 -0.014292 -0.013184
endloop
endfacet
facet normal -0.687093 -0.726540 0.006528
outer loop
vertex -0.012429 -0.015739 0.004740
vertex -0.014129 -0.014292 -0.013184
vertex -0.012108 -0.016047 0.004321
endloop
endfacet
facet normal -0.539938 -0.841418 -0.021979
outer loop
vertex -0.012108 -0.016047 0.004321
vertex -0.014129 -0.014292 -0.013184
vertex -0.006686 -0.019068 -0.013184
endloop
endfacet
facet normal -0.549421 -0.835141 -0.026000
outer loop
vertex -0.012108 -0.016047 0.004321
vertex -0.006686 -0.019068 -0.013184
vertex -0.008322 -0.018481 0.002509
endloop
endfacet
facet normal -0.295292 -0.955394 0.004986
outer loop
vertex -0.008322 -0.018481 0.002509
vertex -0.006686 -0.019068 -0.013184
vertex -0.005327 -0.019415 0.000905
endloop
endfacet
facet normal -0.125511 -0.992016 -0.012291
outer loop
vertex -0.005327 -0.019415 0.000905
vertex -0.006686 -0.019068 -0.013184
vertex 0.000174 -0.020082 -0.001397
endloop
endfacet
facet normal -0.122298 -0.992392 -0.014193
outer loop
vertex 0.000174 -0.020082 -0.001397
vertex -0.006686 -0.019068 -0.013184
vertex 0.000884 -0.020001 -0.013184
endloop
endfacet
facet normal 0.154543 -0.987983 0.002508
outer loop
vertex 0.000174 -0.020082 -0.001397
vertex 0.000884 -0.020001 -0.013184
vertex 0.005901 -0.019193 -0.003859
endloop
endfacet
facet normal 0.216808 -0.975687 -0.032068
outer loop
vertex 0.005901 -0.019193 -0.003859
vertex 0.000884 -0.020001 -0.013184
vertex 0.008249 -0.018365 -0.013184
endloop
endfacet
facet normal 0.342066 -0.939672 0.002664
outer loop
vertex 0.005901 -0.019193 -0.003859
vertex 0.008249 -0.018365 -0.013184
vertex 0.006668 -0.018906 -0.001243
endloop
endfacet
facet normal 0.980806 -0.194981 -0.001555
outer loop
vertex 0.019605 -0.004095 0.016832
vertex 0.019829 -0.002873 0.004739
vertex 0.019970 -0.002175 0.006091
endloop
endfacet
facet normal 0.997787 -0.062494 0.022704
outer loop
vertex 0.019970 -0.002175 0.006091
vertex 0.020027 -0.001110 0.006501
vertex 0.019605 -0.004095 0.016832
endloop
endfacet
facet normal 0.996045 -0.087510 0.015403
outer loop
vertex 0.019605 -0.004095 0.016832
vertex 0.020027 -0.001110 0.006501
vertex 0.020026 0.000691 0.016832
endloop
endfacet
facet normal 0.999719 0.023375 -0.003925
outer loop
vertex 0.020027 -0.001110 0.006501
vertex 0.019935 0.002570 0.005055
vertex 0.020026 0.000691 0.016832
endloop
endfacet
facet normal 0.982419 0.185385 0.022049
outer loop
vertex 0.020026 0.000691 0.016832
vertex 0.019935 0.002570 0.005055
vertex 0.018817 0.007096 0.016832
endloop
endfacet
facet normal 0.976656 0.214563 0.010287
outer loop
vertex 0.018817 0.007096 0.016832
vertex 0.019935 0.002570 0.005055
vertex 0.018978 0.007034 0.002871
endloop
endfacet
facet normal 0.872528 0.488500 0.007875
outer loop
vertex 0.018817 0.007096 0.016832
vertex 0.018978 0.007034 0.002871
vertex 0.016212 0.012011 0.000538
endloop
endfacet
facet normal 0.850372 0.525695 0.022636
outer loop
vertex 0.018817 0.007096 0.016832
vertex 0.016212 0.012011 0.000538
vertex 0.014733 0.013703 0.016832
endloop
endfacet
facet normal 0.721578 0.692304 -0.006362
outer loop
vertex 0.014733 0.013703 0.016832
vertex 0.016212 0.012011 0.000538
vertex 0.013116 0.015222 -0.001226
endloop
endfacet
facet normal 0.527834 0.849004 0.024169
outer loop
vertex 0.014733 0.013703 0.016832
vertex 0.013116 0.015222 -0.001226
vertex 0.010436 0.017229 -0.013184
endloop
endfacet
facet normal 0.599868 0.800058 0.008109
outer loop
vertex 0.014733 0.013703 0.016832
vertex 0.010436 0.017229 -0.013184
vertex 0.009033 0.017976 0.016832
endloop
endfacet
facet normal 0.338934 0.940780 -0.007590
outer loop
vertex 0.009033 0.017976 0.016832
vertex 0.010436 0.017229 -0.013184
vertex 0.003047 0.019891 -0.013184
endloop
endfacet
facet normal 0.253805 0.967192 0.011072
outer loop
vertex 0.009033 0.017976 0.016832
vertex 0.003047 0.019891 -0.013184
vertex 0.000527 0.020208 0.016832
endloop
endfacet
facet normal -0.057956 0.998200 -0.015433
outer loop
vertex 0.000527 0.020208 0.016832
vertex 0.003047 0.019891 -0.013184
vertex -0.005671 0.019385 -0.013184
endloop
endfacet
facet normal -0.186517 0.982384 0.011548
outer loop
vertex 0.000527 0.020208 0.016832
vertex -0.005671 0.019385 -0.013184
vertex -0.006994 0.018781 0.016832
endloop
endfacet
facet normal -0.369169 0.929359 0.002432
outer loop
vertex -0.006994 0.018781 0.016832
vertex -0.005671 0.019385 -0.013184
vertex -0.007504 0.018609 0.005174
endloop
endfacet
facet normal -0.253024 0.967334 0.015627
outer loop
vertex -0.007504 0.018609 0.005174
vertex -0.005671 0.019385 -0.013184
vertex -0.007872 0.018526 0.004320
endloop
endfacet
facet normal -0.452338 0.891750 -0.013139
outer loop
vertex -0.007872 0.018526 0.004320
vertex -0.005671 0.019385 -0.013184
vertex -0.011930 0.016441 0.002498
endloop
endfacet
facet normal -0.508878 0.859828 -0.041696
outer loop
vertex -0.011930 0.016441 0.002498
vertex -0.005671 0.019385 -0.013184
vertex -0.014304 0.014275 -0.013184
endloop
endfacet
facet normal -0.682190 0.731171 0.002308
outer loop
vertex -0.011930 0.016441 0.002498
vertex -0.014304 0.014275 -0.013184
vertex -0.014191 0.014336 0.000913
endloop
endfacet
facet normal -0.801360 0.598170 0.003837
outer loop
vertex -0.014191 0.014336 0.000913
vertex -0.014304 0.014275 -0.013184
vertex -0.017521 0.009890 -0.001403
endloop
endfacet
facet normal -0.837748 0.545451 -0.025727
outer loop
vertex -0.017521 0.009890 -0.001403
vertex -0.014304 0.014275 -0.013184
vertex -0.018387 0.008004 -0.013184
endloop
endfacet
facet normal -0.934905 0.354697 0.011959
outer loop
vertex -0.017521 0.009890 -0.001403
vertex -0.018387 0.008004 -0.013184
vertex -0.019599 0.004497 -0.003867
endloop
endfacet
facet normal -0.970059 0.240231 -0.035703
outer loop
vertex -0.019599 0.004497 -0.003867
vertex -0.018387 0.008004 -0.013184
vertex -0.020199 0.000691 -0.013184
endloop
endfacet
facet normal -0.986928 0.161143 -0.002308
outer loop
vertex -0.019599 0.004497 -0.003867
vertex -0.020199 0.000691 -0.013184
vertex -0.019736 0.003696 -0.001243
endloop
endfacet
facet normal -0.989480 0.144654 0.001942
outer loop
vertex -0.019736 0.003696 -0.001243
vertex -0.020199 0.000691 -0.013184
vertex -0.020121 0.000815 0.016832
endloop
endfacet
facet normal -0.990644 -0.136436 0.003114
outer loop
vertex -0.020121 0.000815 0.016832
vertex -0.020199 0.000691 -0.013184
vertex -0.019229 -0.005661 0.016832
endloop
endfacet
facet normal -0.979967 -0.198884 -0.010445
outer loop
vertex -0.019229 -0.005661 0.016832
vertex -0.020199 0.000691 -0.013184
vertex -0.018423 -0.008058 -0.013184
endloop
endfacet
facet normal -0.907253 -0.420484 0.009211
outer loop
vertex -0.019229 -0.005661 0.016832
vertex -0.018423 -0.008058 -0.013184
vertex -0.016587 -0.011362 0.016832
endloop
endfacet
facet normal -0.823482 -0.567214 -0.012060
outer loop
vertex -0.016587 -0.011362 0.016832
vertex -0.018423 -0.008058 -0.013184
vertex -0.014129 -0.014292 -0.013184
endloop
endfacet
facet normal -0.701573 -0.712495 0.012108
outer loop
vertex -0.016587 -0.011362 0.016832
vertex -0.014129 -0.014292 -0.013184
vertex -0.011269 -0.016599 0.016832
endloop
endfacet
facet normal -0.384512 0.923114 0.003193
outer loop
vertex -0.006994 0.018781 0.016832
vertex -0.007504 0.018609 0.005174
vertex -0.008837 0.018049 0.006525
endloop
endfacet
facet normal -0.453047 0.891311 0.017702
outer loop
vertex -0.006994 0.018781 0.016832
vertex -0.008837 0.018049 0.006525
vertex -0.011222 0.016631 0.016832
endloop
endfacet
facet normal -0.518127 0.855300 -0.002315
outer loop
vertex -0.011222 0.016631 0.016832
vertex -0.008837 0.018049 0.006525
vertex -0.012195 0.016010 0.005054
endloop
endfacet
facet normal -0.676079 0.736634 0.016983
outer loop
vertex -0.011222 0.016631 0.016832
vertex -0.012195 0.016010 0.005054
vertex -0.015913 0.012326 0.016832
endloop
endfacet
facet normal -0.675481 0.737174 0.017341
outer loop
vertex -0.015913 0.012326 0.016832
vertex -0.012195 0.016010 0.005054
vertex -0.015565 0.012974 0.002877
endloop
endfacet
facet normal -0.857251 0.514893 0.002487
outer loop
vertex -0.015913 0.012326 0.016832
vertex -0.015565 0.012974 0.002877
vertex -0.018496 0.008106 0.000544
endloop
endfacet
facet normal -0.883075 0.468866 0.018506
outer loop
vertex -0.015913 0.012326 0.016832
vertex -0.018496 0.008106 0.000544
vertex -0.018907 0.006689 0.016832
endloop
endfacet
facet normal -0.962578 0.271005 -0.000715
outer loop
vertex -0.018907 0.006689 0.016832
vertex -0.018496 0.008106 0.000544
vertex -0.019736 0.003696 -0.001243
endloop
endfacet
facet normal -0.979210 0.202529 0.011385
outer loop
vertex -0.018907 0.006689 0.016832
vertex -0.019736 0.003696 -0.001243
vertex -0.020121 0.000815 0.016832
endloop
endfacet
facet normal 0.247279 0.285866 -0.925815
outer loop
vertex -0.019977 0.005038 -0.003133
vertex -0.036261 0.010165 -0.005900
vertex -0.017704 0.010841 -0.000734
endloop
endfacet
facet normal 0.245622 0.300145 -0.921728
outer loop
vertex -0.017704 0.010841 -0.000734
vertex -0.036261 0.010165 -0.005900
vertex -0.033517 0.017735 -0.002703
endloop
endfacet
facet normal 0.242185 0.291185 -0.925504
outer loop
vertex -0.017704 0.010841 -0.000734
vertex -0.033517 0.017735 -0.002703
vertex -0.027113 0.022235 0.000389
endloop
endfacet
facet normal 0.196757 0.349370 -0.916094
outer loop
vertex -0.027113 0.022235 0.000389
vertex -0.033517 0.017735 -0.002703
vertex -0.031441 0.021301 -0.000897
endloop
endfacet
facet normal 0.252952 0.299527 -0.919945
outer loop
vertex -0.017704 0.010841 -0.000734
vertex -0.027113 0.022235 0.000389
vertex -0.017219 0.022307 0.003132
endloop
endfacet
facet normal 0.224744 0.302819 -0.926170
outer loop
vertex -0.017704 0.010841 -0.000734
vertex -0.017219 0.022307 0.003132
vertex -0.011930 0.016441 0.002498
endloop
endfacet
facet normal 0.245952 0.320700 -0.914691
outer loop
vertex -0.011930 0.016441 0.002498
vertex -0.017219 0.022307 0.003132
vertex -0.007872 0.018526 0.004320
endloop
endfacet
facet normal -0.260794 -0.285097 0.922337
outer loop
vertex -0.015565 0.012974 0.002877
vertex -0.031683 0.020457 0.000633
vertex -0.018496 0.008106 0.000544
endloop
endfacet
facet normal -0.285475 -0.311335 0.906408
outer loop
vertex -0.018496 0.008106 0.000544
vertex -0.031683 0.020457 0.000633
vertex -0.019962 0.004354 -0.001207
endloop
endfacet
facet normal -0.258147 -0.261283 0.930103
outer loop
vertex -0.015565 0.012974 0.002877
vertex -0.020660 0.022125 0.004034
vertex -0.027100 0.021849 0.002169
endloop
endfacet
facet normal -0.242252 -0.239829 0.940104
outer loop
vertex -0.015565 0.012974 0.002877
vertex -0.027100 0.021849 0.002169
vertex -0.031683 0.020457 0.000633
endloop
endfacet
facet normal -0.258845 -0.261635 0.929810
outer loop
vertex -0.009539 0.018352 0.006068
vertex -0.020660 0.022125 0.004034
vertex -0.015565 0.012974 0.002877
endloop
endfacet
facet normal -0.225819 -0.146337 0.963116
outer loop
vertex -0.009539 0.018352 0.006068
vertex -0.011879 0.020149 0.005793
vertex -0.020660 0.022125 0.004034
endloop
endfacet
facet normal -0.253128 -0.289689 0.923042
outer loop
vertex -0.031683 0.020457 0.000633
vertex -0.036488 0.009683 -0.004066
vertex -0.019962 0.004354 -0.001207
endloop
endfacet
facet normal -0.705160 0.699374 -0.116733
outer loop
vertex 0.002800 -0.004922 -0.013184
vertex 0.002245 -0.005312 -0.012167
vertex 0.005108 -0.002595 -0.013184
endloop
endfacet
facet normal -0.711741 0.657952 -0.246016
outer loop
vertex 0.005108 -0.002595 -0.013184
vertex 0.002245 -0.005312 -0.012167
vertex 0.005332 -0.001972 -0.012167
endloop
endfacet
facet normal -0.982526 0.081191 0.167485
outer loop
vertex 0.005108 -0.002595 -0.013184
vertex 0.005332 -0.001972 -0.012167
vertex 0.005485 0.001974 -0.013183
endloop
endfacet
facet normal -0.998323 0.047287 0.033405
outer loop
vertex 0.005485 0.001974 -0.013183
vertex 0.005332 -0.001972 -0.012167
vertex 0.005486 0.001277 -0.012168
endloop
endfacet
facet normal -0.834750 -0.454491 -0.310853
outer loop
vertex 0.005485 0.001974 -0.013183
vertex 0.005486 0.001277 -0.012168
vertex 0.003929 0.004136 -0.012167
endloop
endfacet
facet normal -0.721290 -0.641548 0.261071
outer loop
vertex 0.005485 0.001974 -0.013183
vertex 0.003929 0.004136 -0.012167
vertex 0.002867 0.004918 -0.013184
endloop
endfacet
facet normal -0.387012 -0.880846 -0.272638
outer loop
vertex 0.002867 0.004918 -0.013184
vertex 0.003929 0.004136 -0.012167
vertex 0.000360 0.005705 -0.012167
endloop
endfacet
facet normal -0.253582 -0.960094 0.117966
outer loop
vertex 0.002867 0.004918 -0.013184
vertex 0.000360 0.005705 -0.012167
vertex -0.000301 0.005754 -0.013183
endloop
endfacet
facet normal 0.273401 -0.935597 -0.223407
outer loop
vertex -0.000301 0.005754 -0.013183
vertex 0.000360 0.005705 -0.012167
vertex -0.003380 0.004612 -0.012167
endloop
endfacet
facet normal 0.352246 -0.935781 0.015353
outer loop
vertex -0.000301 0.005754 -0.013183
vertex -0.003380 0.004612 -0.012167
vertex -0.003368 0.004600 -0.013184
endloop
endfacet
facet normal 0.786351 -0.617549 0.016881
outer loop
vertex -0.003368 0.004600 -0.013184
vertex -0.003380 0.004612 -0.012167
vertex -0.005392 0.002022 -0.013184
endloop
endfacet
facet normal 0.804519 -0.585167 -0.101635
outer loop
vertex -0.005392 0.002022 -0.013184
vertex -0.003380 0.004612 -0.012167
vertex -0.005293 0.001982 -0.012168
endloop
endfacet
facet normal 0.994195 -0.042650 -0.098784
outer loop
vertex -0.005392 0.002022 -0.013184
vertex -0.005293 0.001982 -0.012168
vertex -0.005460 -0.001922 -0.012167
endloop
endfacet
facet normal 0.999249 -0.007494 0.038006
outer loop
vertex -0.005392 0.002022 -0.013184
vertex -0.005460 -0.001922 -0.012167
vertex -0.005422 -0.001907 -0.013183
endloop
endfacet
facet normal 0.794954 0.605385 0.039455
outer loop
vertex -0.005422 -0.001907 -0.013183
vertex -0.005460 -0.001922 -0.012167
vertex -0.003435 -0.004515 -0.013184
endloop
endfacet
facet normal 0.683004 0.657837 -0.317419
outer loop
vertex -0.003435 -0.004515 -0.013184
vertex -0.005460 -0.001922 -0.012167
vertex -0.002303 -0.005200 -0.012167
endloop
endfacet
facet normal 0.357611 0.908949 0.214303
outer loop
vertex -0.003435 -0.004515 -0.013184
vertex -0.002303 -0.005200 -0.012167
vertex -0.000385 -0.005715 -0.013183
endloop
endfacet
facet normal 0.022382 0.908123 -0.418106
outer loop
vertex -0.000385 -0.005715 -0.013183
vertex -0.002303 -0.005200 -0.012167
vertex 0.002245 -0.005312 -0.012167
endloop
endfacet
facet normal -0.234904 0.943499 0.233728
outer loop
vertex -0.000385 -0.005715 -0.013183
vertex 0.002245 -0.005312 -0.012167
vertex 0.002800 -0.004922 -0.013184
endloop
endfacet
facet normal -0.000008 0.000006 1.000000
outer loop
vertex -0.003380 0.004612 -0.012167
vertex -0.012183 0.013947 -0.012168
vertex -0.016586 0.008231 -0.012168
endloop
endfacet
facet normal -0.000014 -0.000015 1.000000
outer loop
vertex -0.003380 0.004612 -0.012167
vertex -0.016586 0.008231 -0.012168
vertex -0.005293 0.001982 -0.012168
endloop
endfacet
facet normal 0.000115 0.000218 1.000000
outer loop
vertex -0.005293 0.001982 -0.012168
vertex -0.016586 0.008231 -0.012168
vertex -0.009429 -0.001521 -0.012166
endloop
endfacet
facet normal -0.000140 0.000031 1.000000
outer loop
vertex -0.009429 -0.001521 -0.012166
vertex -0.016586 0.008231 -0.012168
vertex -0.018600 0.000089 -0.012168
endloop
endfacet
facet normal -0.000123 0.000128 1.000000
outer loop
vertex -0.009429 -0.001521 -0.012166
vertex -0.018600 0.000089 -0.012168
vertex -0.010505 -0.003980 -0.012166
endloop
endfacet
facet normal -0.000216 -0.000057 1.000000
outer loop
vertex -0.010505 -0.003980 -0.012166
vertex -0.018600 0.000089 -0.012168
vertex -0.016146 -0.009216 -0.012168
endloop
endfacet
facet normal 0.000416 -0.000738 1.000000
outer loop
vertex -0.010505 -0.003980 -0.012166
vertex -0.016146 -0.009216 -0.012168
vertex -0.008618 -0.004718 -0.012167
endloop
endfacet
facet normal -0.000020 -0.000009 1.000000
outer loop
vertex -0.008618 -0.004718 -0.012167
vertex -0.016146 -0.009216 -0.012168
vertex -0.011184 -0.014646 -0.012168
endloop
endfacet
facet normal 0.000002 -0.000013 1.000000
outer loop
vertex -0.004889 -0.017922 -0.012168
vertex -0.002303 -0.005200 -0.012167
vertex -0.011184 -0.014646 -0.012168
endloop
endfacet
facet normal 0.000006 -0.000015 1.000000
outer loop
vertex -0.011184 -0.014646 -0.012168
vertex -0.002303 -0.005200 -0.012167
vertex -0.008618 -0.004718 -0.012167
endloop
endfacet
facet normal -0.000051 -0.000002 1.000000
outer loop
vertex -0.002303 -0.005200 -0.012167
vertex -0.004889 -0.017922 -0.012168
vertex 0.002245 -0.005312 -0.012167
endloop
endfacet
facet normal -0.000009 -0.000026 1.000000
outer loop
vertex 0.002245 -0.005312 -0.012167
vertex -0.004889 -0.017922 -0.012168
vertex 0.002451 -0.018254 -0.012168
endloop
endfacet
facet normal 0.000010 -0.000026 1.000000
outer loop
vertex 0.002245 -0.005312 -0.012167
vertex 0.002451 -0.018254 -0.012168
vertex 0.008145 -0.016589 -0.012168
endloop
endfacet
facet normal 0.000014 -0.000023 1.000000
outer loop
vertex 0.002245 -0.005312 -0.012167
vertex 0.008145 -0.016589 -0.012168
vertex 0.013069 -0.012977 -0.012168
endloop
endfacet
facet normal 0.000048 0.000023 1.000000
outer loop
vertex 0.002245 -0.005312 -0.012167
vertex 0.013069 -0.012977 -0.012168
vertex 0.005332 -0.001972 -0.012167
endloop
endfacet
facet normal 0.000009 -0.000003 1.000000
outer loop
vertex 0.005332 -0.001972 -0.012167
vertex 0.013069 -0.012977 -0.012168
vertex 0.016568 -0.008197 -0.012168
endloop
endfacet
facet normal -0.000114 -0.000227 1.000000
outer loop
vertex 0.005332 -0.001972 -0.012167
vertex 0.016568 -0.008197 -0.012168
vertex 0.009411 0.001555 -0.012166
endloop
endfacet
facet normal 0.000150 -0.000033 1.000000
outer loop
vertex 0.009411 0.001555 -0.012166
vertex 0.016568 -0.008197 -0.012168
vertex 0.018582 -0.000055 -0.012168
endloop
endfacet
facet normal 0.000138 -0.000098 1.000000
outer loop
vertex 0.009411 0.001555 -0.012166
vertex 0.018582 -0.000055 -0.012168
vertex 0.010487 0.004014 -0.012166
endloop
endfacet
facet normal 0.000211 0.000047 1.000000
outer loop
vertex 0.010487 0.004014 -0.012166
vertex 0.018582 -0.000055 -0.012168
vertex 0.016597 0.008171 -0.012168
endloop
endfacet
facet normal 0.000163 0.000117 1.000000
outer loop
vertex 0.010487 0.004014 -0.012166
vertex 0.016597 0.008171 -0.012168
vertex 0.012985 0.013095 -0.012168
endloop
endfacet
facet normal -0.000571 0.000319 1.000000
outer loop
vertex 0.010487 0.004014 -0.012166
vertex 0.012985 0.013095 -0.012168
vertex 0.008600 0.004753 -0.012167
endloop
endfacet
facet normal 0.000008 0.000015 1.000000
outer loop
vertex 0.008600 0.004753 -0.012167
vertex 0.012985 0.013095 -0.012168
vertex 0.008205 0.016594 -0.012168
endloop
endfacet
facet normal -0.000007 0.000014 1.000000
outer loop
vertex 0.008205 0.016594 -0.012168
vertex 0.003929 0.004136 -0.012167
vertex 0.008600 0.004753 -0.012167
endloop
endfacet
facet normal -0.000002 0.000012 1.000000
outer loop
vertex 0.003929 0.004136 -0.012167
vertex 0.008205 0.016594 -0.012168
vertex 0.000360 0.005705 -0.012167
endloop
endfacet
facet normal -0.000002 0.000012 1.000000
outer loop
vertex 0.000360 0.005705 -0.012167
vertex 0.008205 0.016594 -0.012168
vertex 0.000063 0.018608 -0.012168
endloop
endfacet
facet normal 0.000005 0.000013 1.000000
outer loop
vertex 0.000360 0.005705 -0.012167
vertex 0.000063 0.018608 -0.012168
vertex -0.007114 0.017028 -0.012168
endloop
endfacet
facet normal -0.000002 0.000008 1.000000
outer loop
vertex 0.000360 0.005705 -0.012167
vertex -0.007114 0.017028 -0.012168
vertex -0.003380 0.004612 -0.012167
endloop
endfacet
facet normal -0.000008 0.000006 1.000000
outer loop
vertex -0.003380 0.004612 -0.012167
vertex -0.007114 0.017028 -0.012168
vertex -0.012183 0.013947 -0.012168
endloop
endfacet
facet normal -0.000064 -0.000925 1.000000
outer loop
vertex -0.008618 -0.004718 -0.012167
vertex -0.002303 -0.005200 -0.012167
vertex -0.007272 -0.003116 -0.012166
endloop
endfacet
facet normal 0.000478 0.000367 1.000000
outer loop
vertex -0.007272 -0.003116 -0.012166
vertex -0.002303 -0.005200 -0.012167
vertex -0.005460 -0.001922 -0.012167
endloop
endfacet
facet normal 0.000289 0.000654 1.000000
outer loop
vertex -0.007272 -0.003116 -0.012166
vertex -0.005460 -0.001922 -0.012167
vertex -0.009429 -0.001521 -0.012166
endloop
endfacet
facet normal 0.000231 0.000083 1.000000
outer loop
vertex -0.009429 -0.001521 -0.012166
vertex -0.005460 -0.001922 -0.012167
vertex -0.005293 0.001982 -0.012168
endloop
endfacet
facet normal -0.000335 0.000029 1.000000
outer loop
vertex 0.005332 -0.001972 -0.012167
vertex 0.009411 0.001555 -0.012166
vertex 0.005486 0.001277 -0.012168
endloop
endfacet
facet normal -0.000296 -0.000518 1.000000
outer loop
vertex 0.005486 0.001277 -0.012168
vertex 0.009411 0.001555 -0.012166
vertex 0.007254 0.003151 -0.012166
endloop
endfacet
facet normal -0.000522 -0.000306 1.000000
outer loop
vertex 0.005486 0.001277 -0.012168
vertex 0.007254 0.003151 -0.012166
vertex 0.003929 0.004136 -0.012167
endloop
endfacet
facet normal -0.000136 0.000992 1.000000
outer loop
vertex 0.003929 0.004136 -0.012167
vertex 0.007254 0.003151 -0.012166
vertex 0.008600 0.004753 -0.012167
endloop
endfacet
facet normal 0.791917 -0.609918 0.029445
outer loop
vertex -0.012183 0.013947 -0.012168
vertex -0.014688 0.012095 0.016832
vertex -0.016586 0.008231 -0.012168
endloop
endfacet
facet normal 0.892071 -0.451891 0.001835
outer loop
vertex -0.016586 0.008231 -0.012168
vertex -0.014688 0.012095 0.016832
vertex -0.018616 0.004341 0.016832
endloop
endfacet
facet normal 0.970113 -0.240011 0.035718
outer loop
vertex -0.016586 0.008231 -0.012168
vertex -0.018616 0.004341 0.016832
vertex -0.018600 0.000089 -0.012168
endloop
endfacet
facet normal 0.999946 0.010312 -0.000971
outer loop
vertex -0.018600 0.000089 -0.012168
vertex -0.018616 0.004341 0.016832
vertex -0.018527 -0.004275 0.016832
endloop
endfacet
facet normal 0.966300 0.254901 0.035917
outer loop
vertex -0.018600 0.000089 -0.012168
vertex -0.018527 -0.004275 0.016832
vertex -0.016146 -0.009216 -0.012168
endloop
endfacet
facet normal 0.921213 0.388946 0.009376
outer loop
vertex -0.016146 -0.009216 -0.012168
vertex -0.018527 -0.004275 0.016832
vertex -0.016159 -0.009884 0.016832
endloop
endfacet
facet normal 0.761027 0.648540 0.015288
outer loop
vertex -0.016146 -0.009216 -0.012168
vertex -0.016159 -0.009884 0.016832
vertex -0.012087 -0.014662 0.016832
endloop
endfacet
facet normal 0.738044 0.674348 0.023352
outer loop
vertex -0.016146 -0.009216 -0.012168
vertex -0.012087 -0.014662 0.016832
vertex -0.011184 -0.014646 -0.012168
endloop
endfacet
facet normal 0.461621 0.886953 0.014864
outer loop
vertex -0.011184 -0.014646 -0.012168
vertex -0.012087 -0.014662 0.016832
vertex -0.004889 -0.017922 -0.012168
endloop
endfacet
facet normal 0.451852 0.892014 0.011871
outer loop
vertex -0.004889 -0.017922 -0.012168
vertex -0.012087 -0.014662 0.016832
vertex -0.004333 -0.018590 0.016832
endloop
endfacet
facet normal 0.045111 0.998737 0.022126
outer loop
vertex -0.004889 -0.017922 -0.012168
vertex -0.004333 -0.018590 0.016832
vertex 0.002451 -0.018254 -0.012168
endloop
endfacet
facet normal -0.010310 0.999905 0.009175
outer loop
vertex 0.002451 -0.018254 -0.012168
vertex -0.004333 -0.018590 0.016832
vertex 0.004283 -0.018501 0.016832
endloop
endfacet
facet normal -0.280466 0.959514 0.025898
outer loop
vertex 0.002451 -0.018254 -0.012168
vertex 0.004283 -0.018501 0.016832
vertex 0.008145 -0.016589 -0.012168
endloop
endfacet
facet normal -0.388941 0.921219 0.008928
outer loop
vertex 0.008145 -0.016589 -0.012168
vertex 0.004283 -0.018501 0.016832
vertex 0.009892 -0.016133 0.016832
endloop
endfacet
facet normal -0.591359 0.806082 0.022934
outer loop
vertex 0.008145 -0.016589 -0.012168
vertex 0.009892 -0.016133 0.016832
vertex 0.013069 -0.012977 -0.012168
endloop
endfacet
facet normal -0.648564 0.761069 0.011767
outer loop
vertex 0.013069 -0.012977 -0.012168
vertex 0.009892 -0.016133 0.016832
vertex 0.014670 -0.012061 0.016832
endloop
endfacet
facet normal -0.806672 0.590433 0.025883
outer loop
vertex 0.013069 -0.012977 -0.012168
vertex 0.014670 -0.012061 0.016832
vertex 0.016568 -0.008197 -0.012168
endloop
endfacet
facet normal -0.892075 0.451883 0.001832
outer loop
vertex 0.016568 -0.008197 -0.012168
vertex 0.014670 -0.012061 0.016832
vertex 0.018598 -0.004307 0.016832
endloop
endfacet
facet normal -0.970114 0.240006 0.035715
outer loop
vertex 0.016568 -0.008197 -0.012168
vertex 0.018598 -0.004307 0.016832
vertex 0.018582 -0.000055 -0.012168
endloop
endfacet
facet normal -0.999946 -0.010314 -0.000969
outer loop
vertex 0.018582 -0.000055 -0.012168
vertex 0.018598 -0.004307 0.016832
vertex 0.018509 0.004309 0.016832
endloop
endfacet
facet normal -0.971581 -0.234420 0.032825
outer loop
vertex 0.018582 -0.000055 -0.012168
vertex 0.018509 0.004309 0.016832
vertex 0.016597 0.008171 -0.012168
endloop
endfacet
facet normal -0.921220 -0.388940 0.008927
outer loop
vertex 0.016597 0.008171 -0.012168
vertex 0.018509 0.004309 0.016832
vertex 0.016141 0.009918 0.016832
endloop
endfacet
facet normal -0.806089 -0.591349 0.022933
outer loop
vertex 0.016597 0.008171 -0.012168
vertex 0.016141 0.009918 0.016832
vertex 0.012985 0.013095 -0.012168
endloop
endfacet
facet normal -0.761073 -0.648560 0.011766
outer loop
vertex 0.012985 0.013095 -0.012168
vertex 0.016141 0.009918 0.016832
vertex 0.012069 0.014696 0.016832
endloop
endfacet
facet normal -0.590442 -0.806665 0.025884
outer loop
vertex 0.012985 0.013095 -0.012168
vertex 0.012069 0.014696 0.016832
vertex 0.008205 0.016594 -0.012168
endloop
endfacet
facet normal -0.451895 -0.892069 0.001835
outer loop
vertex 0.008205 0.016594 -0.012168
vertex 0.012069 0.014696 0.016832
vertex 0.004315 0.018624 0.016832
endloop
endfacet
facet normal -0.240009 -0.970113 0.035718
outer loop
vertex 0.008205 0.016594 -0.012168
vertex 0.004315 0.018624 0.016832
vertex 0.000063 0.018608 -0.012168
endloop
endfacet
facet normal 0.010295 -0.999947 -0.000970
outer loop
vertex 0.000063 0.018608 -0.012168
vertex 0.004315 0.018624 0.016832
vertex -0.004301 0.018535 0.016832
endloop
endfacet
facet normal 0.214879 -0.976184 0.029872
outer loop
vertex 0.000063 0.018608 -0.012168
vertex -0.004301 0.018535 0.016832
vertex -0.007114 0.017028 -0.012168
endloop
endfacet
facet normal 0.388949 -0.921204 0.010125
outer loop
vertex -0.007114 0.017028 -0.012168
vertex -0.004301 0.018535 0.016832
vertex -0.009910 0.016167 0.016832
endloop
endfacet
facet normal 0.519257 -0.854262 0.024677
outer loop
vertex -0.007114 0.017028 -0.012168
vertex -0.009910 0.016167 0.016832
vertex -0.012183 0.013947 -0.012168
endloop
endfacet
facet normal 0.648595 -0.761098 0.007410
outer loop
vertex -0.012183 0.013947 -0.012168
vertex -0.009910 0.016167 0.016832
vertex -0.014688 0.012095 0.016832
endloop
endfacet
facet normal 0.000011 0.000021 -1.000000
outer loop
vertex 0.005108 -0.002595 -0.013184
vertex 0.016010 -0.012287 -0.013184
vertex 0.002800 -0.004922 -0.013184
endloop
endfacet
facet normal 0.000003 0.000007 -1.000000
outer loop
vertex 0.002800 -0.004922 -0.013184
vertex 0.016010 -0.012287 -0.013184
vertex 0.008249 -0.018365 -0.013184
endloop
endfacet
facet normal -0.000023 -0.000004 -1.000000
outer loop
vertex 0.002800 -0.004922 -0.013184
vertex 0.008249 -0.018365 -0.013184
vertex -0.000385 -0.005715 -0.013183
endloop
endfacet
facet normal -0.000010 0.000005 -1.000000
outer loop
vertex -0.000385 -0.005715 -0.013183
vertex 0.008249 -0.018365 -0.013184
vertex 0.000884 -0.020001 -0.013184
endloop
endfacet
facet normal -0.000000 0.000006 -1.000000
outer loop
vertex -0.000385 -0.005715 -0.013183
vertex 0.000884 -0.020001 -0.013184
vertex -0.006686 -0.019068 -0.013184
endloop
endfacet
facet normal 0.000019 -0.000003 -1.000000
outer loop
vertex -0.000385 -0.005715 -0.013183
vertex -0.006686 -0.019068 -0.013184
vertex -0.003435 -0.004515 -0.013184
endloop
endfacet
facet normal -0.000380 0.000086 -1.000000
outer loop
vertex -0.003435 -0.004515 -0.013184
vertex -0.006686 -0.019068 -0.013184
vertex -0.007481 -0.004101 -0.013182
endloop
endfacet
facet normal 0.000432 0.000129 -1.000000
outer loop
vertex -0.007481 -0.004101 -0.013182
vertex -0.006686 -0.019068 -0.013184
vertex -0.009856 -0.004625 -0.013183
endloop
endfacet
facet normal 0.000028 0.000041 -1.000000
outer loop
vertex -0.009856 -0.004625 -0.013183
vertex -0.006686 -0.019068 -0.013184
vertex -0.014129 -0.014292 -0.013184
endloop
endfacet
facet normal 0.000047 0.000033 -1.000000
outer loop
vertex -0.009856 -0.004625 -0.013183
vertex -0.014129 -0.014292 -0.013184
vertex -0.018423 -0.008058 -0.013184
endloop
endfacet
facet normal 0.000055 0.000011 -1.000000
outer loop
vertex -0.009856 -0.004625 -0.013183
vertex -0.018423 -0.008058 -0.013184
vertex -0.010590 -0.002654 -0.013183
endloop
endfacet
facet normal 0.000050 0.000018 -1.000000
outer loop
vertex -0.010590 -0.002654 -0.013183
vertex -0.018423 -0.008058 -0.013184
vertex -0.020199 0.000691 -0.013184
endloop
endfacet
facet normal 0.000196 0.000438 -1.000000
outer loop
vertex -0.010590 -0.002654 -0.013183
vertex -0.020199 0.000691 -0.013184
vertex -0.008423 -0.001507 -0.013182
endloop
endfacet
facet normal 0.000107 -0.000036 -1.000000
outer loop
vertex -0.008423 -0.001507 -0.013182
vertex -0.020199 0.000691 -0.013184
vertex -0.018387 0.008004 -0.013184
endloop
endfacet
facet normal 0.000004 -0.000007 -1.000000
outer loop
vertex -0.014304 0.014275 -0.013184
vertex -0.005392 0.002022 -0.013184
vertex -0.018387 0.008004 -0.013184
endloop
endfacet
facet normal -0.000119 -0.000274 -1.000000
outer loop
vertex -0.018387 0.008004 -0.013184
vertex -0.005392 0.002022 -0.013184
vertex -0.008423 -0.001507 -0.013182
endloop
endfacet
facet normal -0.000438 0.000001 -1.000000
outer loop
vertex -0.008423 -0.001507 -0.013182
vertex -0.005392 0.002022 -0.013184
vertex -0.005422 -0.001907 -0.013183
endloop
endfacet
facet normal -0.000470 -0.000244 -1.000000
outer loop
vertex -0.008423 -0.001507 -0.013182
vertex -0.005422 -0.001907 -0.013183
vertex -0.007481 -0.004101 -0.013182
endloop
endfacet
facet normal -0.000419 -0.000292 -1.000000
outer loop
vertex -0.007481 -0.004101 -0.013182
vertex -0.005422 -0.001907 -0.013183
vertex -0.003435 -0.004515 -0.013184
endloop
endfacet
facet normal -0.000015 -0.000020 -1.000000
outer loop
vertex -0.005392 0.002022 -0.013184
vertex -0.014304 0.014275 -0.013184
vertex -0.003368 0.004600 -0.013184
endloop
endfacet
facet normal 0.000003 -0.000000 -1.000000
outer loop
vertex -0.003368 0.004600 -0.013184
vertex -0.014304 0.014275 -0.013184
vertex -0.005671 0.019385 -0.013184
endloop
endfacet
facet normal 0.000028 0.000004 -1.000000
outer loop
vertex -0.003368 0.004600 -0.013184
vertex -0.005671 0.019385 -0.013184
vertex -0.000301 0.005754 -0.013183
endloop
endfacet
facet normal 0.000001 -0.000007 -1.000000
outer loop
vertex -0.000301 0.005754 -0.013183
vertex -0.005671 0.019385 -0.013184
vertex 0.003047 0.019891 -0.013184
endloop
endfacet
facet normal -0.000023 -0.000002 -1.000000
outer loop
vertex -0.000301 0.005754 -0.013183
vertex 0.003047 0.019891 -0.013184
vertex 0.002867 0.004918 -0.013184
endloop
endfacet
facet normal -0.000014 -0.000002 -1.000000
outer loop
vertex 0.002867 0.004918 -0.013184
vertex 0.003047 0.019891 -0.013184
vertex 0.010436 0.017229 -0.013184
endloop
endfacet
facet normal -0.000404 -0.000029 -1.000000
outer loop
vertex 0.010436 0.017229 -0.013184
vertex 0.009838 0.004659 -0.013183
vertex 0.007463 0.004135 -0.013182
endloop
endfacet
facet normal 0.000285 -0.000186 -1.000000
outer loop
vertex 0.010436 0.017229 -0.013184
vertex 0.007463 0.004135 -0.013182
vertex 0.002867 0.004918 -0.013184
endloop
endfacet
facet normal 0.000357 0.000236 -1.000000
outer loop
vertex 0.002867 0.004918 -0.013184
vertex 0.007463 0.004135 -0.013182
vertex 0.005485 0.001974 -0.013183
endloop
endfacet
facet normal 0.000419 0.000177 -1.000000
outer loop
vertex 0.005485 0.001974 -0.013183
vertex 0.007463 0.004135 -0.013182
vertex 0.008405 0.001541 -0.013182
endloop
endfacet
facet normal -0.000039 -0.000047 -1.000000
outer loop
vertex 0.010436 0.017229 -0.013184
vertex 0.015652 0.012652 -0.013184
vertex 0.009838 0.004659 -0.013183
endloop
endfacet
facet normal -0.000052 -0.000037 -1.000000
outer loop
vertex 0.009838 0.004659 -0.013183
vertex 0.015652 0.012652 -0.013184
vertex 0.019637 0.004672 -0.013184
endloop
endfacet
facet normal -0.000053 -0.000010 -1.000000
outer loop
vertex 0.009838 0.004659 -0.013183
vertex 0.019637 0.004672 -0.013184
vertex 0.010572 0.002688 -0.013183
endloop
endfacet
facet normal -0.000053 -0.000011 -1.000000
outer loop
vertex 0.010572 0.002688 -0.013183
vertex 0.019637 0.004672 -0.013184
vertex 0.019644 -0.004192 -0.013184
endloop
endfacet
facet normal -0.000271 -0.000299 -1.000000
outer loop
vertex 0.010572 0.002688 -0.013183
vertex 0.019644 -0.004192 -0.013184
vertex 0.008405 0.001541 -0.013182
endloop
endfacet
facet normal -0.000091 0.000052 -1.000000
outer loop
vertex 0.008405 0.001541 -0.013182
vertex 0.019644 -0.004192 -0.013184
vertex 0.016010 -0.012287 -0.013184
endloop
endfacet
facet normal 0.000163 0.000192 -1.000000
outer loop
vertex 0.008405 0.001541 -0.013182
vertex 0.016010 -0.012287 -0.013184
vertex 0.005108 -0.002595 -0.013184
endloop
endfacet
facet normal 0.000394 0.000007 -1.000000
outer loop
vertex 0.008405 0.001541 -0.013182
vertex 0.005108 -0.002595 -0.013184
vertex 0.005485 0.001974 -0.013183
endloop
endfacet
facet normal -0.426527 0.805835 0.410736
outer loop
vertex 0.008405 0.001541 -0.013182
vertex 0.009411 0.001555 -0.012166
vertex 0.010572 0.002688 -0.013183
endloop
endfacet
facet normal -0.785826 0.343876 -0.514030
outer loop
vertex 0.010572 0.002688 -0.013183
vertex 0.009411 0.001555 -0.012166
vertex 0.010487 0.004014 -0.012166
endloop
endfacet
facet normal -0.877013 -0.326442 0.352540
outer loop
vertex 0.010572 0.002688 -0.013183
vertex 0.010487 0.004014 -0.012166
vertex 0.009838 0.004659 -0.013183
endloop
endfacet
facet normal -0.342921 -0.876782 -0.337133
outer loop
vertex 0.009838 0.004659 -0.013183
vertex 0.010487 0.004014 -0.012166
vertex 0.008600 0.004753 -0.012167
endloop
endfacet
facet normal 0.203520 -0.920805 0.332713
outer loop
vertex 0.009838 0.004659 -0.013183
vertex 0.008600 0.004753 -0.012167
vertex 0.007463 0.004135 -0.013182
endloop
endfacet
facet normal 0.693868 -0.583379 -0.422157
outer loop
vertex 0.007463 0.004135 -0.013182
vertex 0.008600 0.004753 -0.012167
vertex 0.007254 0.003151 -0.012166
endloop
endfacet
facet normal 0.832571 0.302308 0.464150
outer loop
vertex 0.007463 0.004135 -0.013182
vertex 0.007254 0.003151 -0.012166
vertex 0.008405 0.001541 -0.013182
endloop
endfacet
facet normal 0.510021 0.689412 -0.514382
outer loop
vertex 0.008405 0.001541 -0.013182
vertex 0.007254 0.003151 -0.012166
vertex 0.009411 0.001555 -0.012166
endloop
endfacet
facet normal -0.693826 0.583399 -0.422198
outer loop
vertex -0.007481 -0.004101 -0.013182
vertex -0.008618 -0.004718 -0.012167
vertex -0.007272 -0.003116 -0.012166
endloop
endfacet
facet normal -0.832589 -0.302297 0.464125
outer loop
vertex -0.007481 -0.004101 -0.013182
vertex -0.007272 -0.003116 -0.012166
vertex -0.008423 -0.001507 -0.013182
endloop
endfacet
facet normal -0.509988 -0.689437 -0.514382
outer loop
vertex -0.008423 -0.001507 -0.013182
vertex -0.007272 -0.003116 -0.012166
vertex -0.009429 -0.001521 -0.012166
endloop
endfacet
facet normal 0.426513 -0.805818 0.410785
outer loop
vertex -0.008423 -0.001507 -0.013182
vertex -0.009429 -0.001521 -0.012166
vertex -0.010590 -0.002654 -0.013183
endloop
endfacet
facet normal 0.785825 -0.343902 -0.514014
outer loop
vertex -0.010590 -0.002654 -0.013183
vertex -0.009429 -0.001521 -0.012166
vertex -0.010505 -0.003980 -0.012166
endloop
endfacet
facet normal 0.877004 0.326430 0.352574
outer loop
vertex -0.010590 -0.002654 -0.013183
vertex -0.010505 -0.003980 -0.012166
vertex -0.009856 -0.004625 -0.013183
endloop
endfacet
facet normal 0.342924 0.876777 -0.337143
outer loop
vertex -0.009856 -0.004625 -0.013183
vertex -0.010505 -0.003980 -0.012166
vertex -0.008618 -0.004718 -0.012167
endloop
endfacet
facet normal -0.203525 0.920803 0.332714
outer loop
vertex -0.009856 -0.004625 -0.013183
vertex -0.008618 -0.004718 -0.012167
vertex -0.007481 -0.004101 -0.013182
endloop
endfacet
facet normal -0.000039 -0.000041 1.000000
outer loop
vertex 0.009033 0.017976 0.016832
vertex 0.012069 0.014696 0.016832
vertex 0.014733 0.013703 0.016832
endloop
endfacet
facet normal -0.000032 -0.000023 1.000000
outer loop
vertex 0.014733 0.013703 0.016832
vertex 0.012069 0.014696 0.016832
vertex 0.016141 0.009918 0.016832
endloop
endfacet
facet normal -0.000011 -0.000015 1.000000
outer loop
vertex 0.014733 0.013703 0.016832
vertex 0.016141 0.009918 0.016832
vertex 0.018817 0.007096 0.016832
endloop
endfacet
facet normal 0.000007 0.000001 1.000000
outer loop
vertex 0.018817 0.007096 0.016832
vertex 0.016141 0.009918 0.016832
vertex 0.018509 0.004309 0.016832
endloop
endfacet
facet normal -0.000018 0.000004 1.000000
outer loop
vertex 0.018817 0.007096 0.016832
vertex 0.018509 0.004309 0.016832
vertex 0.020026 0.000691 0.016832
endloop
endfacet
facet normal -0.000041 -0.000004 1.000000
outer loop
vertex 0.020026 0.000691 0.016832
vertex 0.018509 0.004309 0.016832
vertex 0.018598 -0.004307 0.016832
endloop
endfacet
facet normal -0.000103 0.000012 1.000000
outer loop
vertex 0.020026 0.000691 0.016832
vertex 0.018598 -0.004307 0.016832
vertex 0.019605 -0.004095 0.016832
endloop
endfacet
facet normal -0.000108 0.000036 1.000000
outer loop
vertex 0.019605 -0.004095 0.016832
vertex 0.018598 -0.004307 0.016832
vertex 0.016750 -0.011257 0.016832
endloop
endfacet
facet normal -0.000011 0.000011 1.000000
outer loop
vertex 0.016750 -0.011257 0.016832
vertex 0.018598 -0.004307 0.016832
vertex 0.014670 -0.012061 0.016832
endloop
endfacet
facet normal -0.000013 0.000017 1.000000
outer loop
vertex 0.016750 -0.011257 0.016832
vertex 0.014670 -0.012061 0.016832
vertex 0.011334 -0.016505 0.016832
endloop
endfacet
facet normal -0.000002 0.000006 1.000000
outer loop
vertex 0.011334 -0.016505 0.016832
vertex 0.014670 -0.012061 0.016832
vertex 0.009892 -0.016133 0.016832
endloop
endfacet
facet normal -0.000003 -0.000001 1.000000
outer loop
vertex 0.011334 -0.016505 0.016832
vertex 0.009892 -0.016133 0.016832
vertex 0.004341 -0.019699 0.016832
endloop
endfacet
facet normal 0.000000 -0.000008 1.000000
outer loop
vertex 0.004341 -0.019699 0.016832
vertex 0.009892 -0.016133 0.016832
vertex 0.004283 -0.018501 0.016832
endloop
endfacet
facet normal -0.000004 -0.000008 1.000000
outer loop
vertex 0.004341 -0.019699 0.016832
vertex 0.004283 -0.018501 0.016832
vertex -0.004333 -0.018590 0.016832
endloop
endfacet
facet normal 0.000004 0.000054 1.000000
outer loop
vertex 0.004341 -0.019699 0.016832
vertex -0.004333 -0.018590 0.016832
vertex -0.004509 -0.019584 0.016832
endloop
endfacet
facet normal 0.000006 0.000053 1.000000
outer loop
vertex -0.004509 -0.019584 0.016832
vertex -0.004333 -0.018590 0.016832
vertex -0.011269 -0.016599 0.016832
endloop
endfacet
facet normal -0.000027 -0.000060 1.000000
outer loop
vertex -0.011269 -0.016599 0.016832
vertex -0.004333 -0.018590 0.016832
vertex -0.012087 -0.014662 0.016832
endloop
endfacet
facet normal -0.000046 -0.000068 1.000000
outer loop
vertex -0.011269 -0.016599 0.016832
vertex -0.012087 -0.014662 0.016832
vertex -0.016587 -0.011362 0.016832
endloop
endfacet
facet normal 0.000007 0.000002 1.000000
outer loop
vertex -0.016587 -0.011362 0.016832
vertex -0.012087 -0.014662 0.016832
vertex -0.016159 -0.009884 0.016832
endloop
endfacet
facet normal 0.000002 0.000002 1.000000
outer loop
vertex -0.016587 -0.011362 0.016832
vertex -0.016159 -0.009884 0.016832
vertex -0.019229 -0.005661 0.016832
endloop
endfacet
facet normal 0.000016 0.000008 1.000000
outer loop
vertex -0.019229 -0.005661 0.016832
vertex -0.016159 -0.009884 0.016832
vertex -0.018527 -0.004275 0.016832
endloop
endfacet
facet normal 0.000028 -0.000000 1.000000
outer loop
vertex -0.019229 -0.005661 0.016832
vertex -0.018527 -0.004275 0.016832
vertex -0.020121 0.000815 0.016832
endloop
endfacet
facet normal 0.000044 0.000004 1.000000
outer loop
vertex -0.020121 0.000815 0.016832
vertex -0.018527 -0.004275 0.016832
vertex -0.018616 0.004341 0.016832
endloop
endfacet
facet normal 0.000086 -0.000013 1.000000
outer loop
vertex -0.020121 0.000815 0.016832
vertex -0.018616 0.004341 0.016832
vertex -0.018907 0.006689 0.016832
endloop
endfacet
facet normal 0.000040 -0.000019 1.000000
outer loop
vertex -0.018907 0.006689 0.016832
vertex -0.018616 0.004341 0.016832
vertex -0.015913 0.012326 0.016832
endloop
endfacet
facet normal 0.000008 -0.000010 1.000000
outer loop
vertex -0.015913 0.012326 0.016832
vertex -0.018616 0.004341 0.016832
vertex -0.014688 0.012095 0.016832
endloop
endfacet
facet normal 0.000011 -0.000017 1.000000
outer loop
vertex -0.015913 0.012326 0.016832
vertex -0.014688 0.012095 0.016832
vertex -0.011222 0.016631 0.016832
endloop
endfacet
facet normal 0.000012 -0.000018 1.000000
outer loop
vertex -0.011222 0.016631 0.016832
vertex -0.014688 0.012095 0.016832
vertex -0.009910 0.016167 0.016832
endloop
endfacet
facet normal 0.000017 -0.000007 1.000000
outer loop
vertex -0.011222 0.016631 0.016832
vertex -0.009910 0.016167 0.016832
vertex -0.006994 0.018781 0.016832
endloop
endfacet
facet normal -0.000005 0.000015 1.000000
outer loop
vertex -0.006994 0.018781 0.016832
vertex -0.009910 0.016167 0.016832
vertex -0.004301 0.018535 0.016832
endloop
endfacet
facet normal -0.000006 0.000000 1.000000
outer loop
vertex -0.006994 0.018781 0.016832
vertex -0.004301 0.018535 0.016832
vertex 0.000527 0.020208 0.016832
endloop
endfacet
facet normal 0.000004 -0.000025 1.000000
outer loop
vertex 0.000527 0.020208 0.016832
vertex -0.004301 0.018535 0.016832
vertex 0.004315 0.018624 0.016832
endloop
endfacet
facet normal -0.000024 -0.000090 1.000000
outer loop
vertex 0.000527 0.020208 0.016832
vertex 0.004315 0.018624 0.016832
vertex 0.009033 0.017976 0.016832
endloop
endfacet
facet normal -0.000013 -0.000019 1.000000
outer loop
vertex 0.009033 0.017976 0.016832
vertex 0.004315 0.018624 0.016832
vertex 0.012069 0.014696 0.016832
endloop
endfacet
facet normal 0.354641 0.857668 0.372339
outer loop
vertex -0.011879 0.020149 0.005793
vertex -0.007504 0.018609 0.005174
vertex -0.012046 0.020899 0.004224
endloop
endfacet
facet normal 0.239814 0.885540 0.397880
outer loop
vertex -0.011879 0.020149 0.005793
vertex -0.012046 0.020899 0.004224
vertex -0.016281 0.021856 0.004647
endloop
endfacet
facet normal 0.020819 0.961717 0.273251
outer loop
vertex -0.016281 0.021856 0.004647
vertex -0.017219 0.022307 0.003132
vertex -0.020660 0.022125 0.004034
endloop
endfacet
facet normal 0.007113 0.974666 0.223551
outer loop
vertex -0.020660 0.022125 0.004034
vertex -0.017219 0.022307 0.003132
vertex -0.023804 0.022663 0.001788
endloop
endfacet
facet normal -0.166206 0.880651 0.443654
outer loop
vertex -0.020660 0.022125 0.004034
vertex -0.023804 0.022663 0.001788
vertex -0.027100 0.021849 0.002169
endloop
endfacet
facet normal -0.211697 0.954833 0.208515
outer loop
vertex -0.027100 0.021849 0.002169
vertex -0.023804 0.022663 0.001788
vertex -0.027113 0.022235 0.000389
endloop
endfacet
facet normal -0.273127 0.939731 0.205687
outer loop
vertex -0.027100 0.021849 0.002169
vertex -0.027113 0.022235 0.000389
vertex -0.031937 0.020850 0.000313
endloop
endfacet
facet normal -0.271632 0.932841 0.236693
outer loop
vertex -0.031937 0.020850 0.000313
vertex -0.027113 0.022235 0.000389
vertex -0.031441 0.021301 -0.000897
endloop
endfacet
facet normal -0.244570 -0.918828 -0.309741
outer loop
vertex -0.036895 0.009498 -0.004579
vertex -0.036758 0.009834 -0.005683
vertex -0.020034 0.004072 -0.001797
endloop
endfacet
facet normal -0.227728 -0.904405 -0.360821
outer loop
vertex -0.020034 0.004072 -0.001797
vertex -0.036758 0.009834 -0.005683
vertex -0.020061 0.004499 -0.002849
endloop
endfacet
facet normal -0.947860 0.317981 -0.021200
outer loop
vertex -0.035560 0.013595 -0.002803
vertex -0.036758 0.009834 -0.005683
vertex -0.036895 0.009498 -0.004579
endloop
endfacet
facet normal -0.959462 0.279850 0.033423
outer loop
vertex -0.036758 0.009834 -0.005683
vertex -0.035560 0.013595 -0.002803
vertex -0.035514 0.013887 -0.003922
endloop
endfacet
facet normal -0.904374 0.420543 0.072462
outer loop
vertex -0.035514 0.013887 -0.003922
vertex -0.035560 0.013595 -0.002803
vertex -0.031937 0.020850 0.000313
endloop
endfacet
facet normal -0.885435 0.464495 -0.015785
outer loop
vertex -0.035514 0.013887 -0.003922
vertex -0.031937 0.020850 0.000313
vertex -0.033517 0.017735 -0.002703
endloop
endfacet
facet normal -0.825515 0.548312 -0.133714
outer loop
vertex -0.033517 0.017735 -0.002703
vertex -0.031937 0.020850 0.000313
vertex -0.031441 0.021301 -0.000897
endloop
endfacet
facet normal -0.470091 -0.168241 0.866435
outer loop
vertex -0.035560 0.013595 -0.002803
vertex -0.036488 0.009683 -0.004066
vertex -0.031683 0.020457 0.000633
endloop
endfacet
facet normal -0.733127 0.075805 0.675854
outer loop
vertex -0.035560 0.013595 -0.002803
vertex -0.031683 0.020457 0.000633
vertex -0.031937 0.020850 0.000313
endloop
endfacet
facet normal -0.780415 -0.016715 0.625039
outer loop
vertex -0.036895 0.009498 -0.004579
vertex -0.036488 0.009683 -0.004066
vertex -0.035560 0.013595 -0.002803
endloop
endfacet
facet normal -0.482708 0.176191 0.857875
outer loop
vertex -0.012195 0.016010 0.005054
vertex -0.008837 0.018049 0.006525
vertex -0.009539 0.018352 0.006068
endloop
endfacet
facet normal -0.648117 0.759470 -0.056118
outer loop
vertex -0.015565 0.012974 0.002877
vertex -0.012195 0.016010 0.005054
vertex -0.009539 0.018352 0.006068
endloop
endfacet
facet normal 0.353889 0.839405 0.412508
outer loop
vertex -0.008122 0.018439 0.006050
vertex -0.007504 0.018609 0.005174
vertex -0.011879 0.020149 0.005793
endloop
endfacet
facet normal 0.003052 0.155419 0.987844
outer loop
vertex -0.008122 0.018439 0.006050
vertex -0.011879 0.020149 0.005793
vertex -0.009539 0.018352 0.006068
endloop
endfacet
facet normal -0.399304 0.408967 0.820550
outer loop
vertex -0.031683 0.020457 0.000633
vertex -0.027100 0.021849 0.002169
vertex -0.031937 0.020850 0.000313
endloop
endfacet
facet normal -0.109494 0.343578 0.932719
outer loop
vertex -0.020660 0.022125 0.004034
vertex -0.011879 0.020149 0.005793
vertex -0.016281 0.021856 0.004647
endloop
endfacet
facet normal -0.343663 -0.830200 0.438935
outer loop
vertex -0.036488 0.009683 -0.004066
vertex -0.020034 0.004072 -0.001797
vertex -0.019962 0.004354 -0.001207
endloop
endfacet
facet normal -0.337038 -0.768089 0.544468
outer loop
vertex -0.036488 0.009683 -0.004066
vertex -0.036895 0.009498 -0.004579
vertex -0.020034 0.004072 -0.001797
endloop
endfacet
facet normal -0.477292 -0.211409 0.852935
outer loop
vertex -0.019962 0.004354 -0.001207
vertex -0.019736 0.003696 -0.001243
vertex -0.018496 0.008106 0.000544
endloop
endfacet
facet normal 0.595341 -0.755188 0.274335
outer loop
vertex -0.008837 0.018049 0.006525
vertex -0.007504 0.018609 0.005174
vertex -0.008122 0.018439 0.006050
endloop
endfacet
facet normal -0.041766 0.802106 0.595720
outer loop
vertex -0.008122 0.018439 0.006050
vertex -0.009539 0.018352 0.006068
vertex -0.008837 0.018049 0.006525
endloop
endfacet
facet normal -0.906757 -0.326511 0.266800
outer loop
vertex -0.020034 0.004072 -0.001797
vertex -0.019736 0.003696 -0.001243
vertex -0.019962 0.004354 -0.001207
endloop
endfacet
facet normal 0.478501 0.829895 -0.286901
outer loop
vertex -0.007872 0.018526 0.004320
vertex -0.012046 0.020899 0.004224
vertex -0.007504 0.018609 0.005174
endloop
endfacet
facet normal 0.308147 0.509406 -0.803462
outer loop
vertex -0.007872 0.018526 0.004320
vertex -0.017219 0.022307 0.003132
vertex -0.012046 0.020899 0.004224
endloop
endfacet
facet normal 0.231675 0.962256 0.142795
outer loop
vertex -0.016281 0.021856 0.004647
vertex -0.012046 0.020899 0.004224
vertex -0.017219 0.022307 0.003132
endloop
endfacet
facet normal 0.170107 0.755128 -0.633123
outer loop
vertex -0.017219 0.022307 0.003132
vertex -0.027113 0.022235 0.000389
vertex -0.023804 0.022663 0.001788
endloop
endfacet
facet normal -0.621854 -0.731145 -0.280578
outer loop
vertex -0.020034 0.004072 -0.001797
vertex -0.020061 0.004499 -0.002849
vertex -0.019599 0.004497 -0.003867
endloop
endfacet
facet normal -0.514488 -0.812316 -0.274673
outer loop
vertex -0.019599 0.004497 -0.003867
vertex -0.019736 0.003696 -0.001243
vertex -0.020034 0.004072 -0.001797
endloop
endfacet
facet normal -0.568131 0.494542 -0.657765
outer loop
vertex -0.019977 0.005038 -0.003133
vertex -0.017704 0.010841 -0.000734
vertex -0.019599 0.004497 -0.003867
endloop
endfacet
facet normal -0.341220 0.496194 -0.798348
outer loop
vertex -0.019599 0.004497 -0.003867
vertex -0.017704 0.010841 -0.000734
vertex -0.017521 0.009890 -0.001403
endloop
endfacet
facet normal -0.159556 0.547418 -0.821508
outer loop
vertex -0.017521 0.009890 -0.001403
vertex -0.017704 0.010841 -0.000734
vertex -0.014191 0.014336 0.000913
endloop
endfacet
facet normal -0.735062 0.653396 0.180989
outer loop
vertex -0.014191 0.014336 0.000913
vertex -0.017704 0.010841 -0.000734
vertex -0.011930 0.016441 0.002498
endloop
endfacet
facet normal -0.908065 -0.076390 -0.411803
outer loop
vertex -0.019977 0.005038 -0.003133
vertex -0.019599 0.004497 -0.003867
vertex -0.020061 0.004499 -0.002849
endloop
endfacet
facet normal 0.001504 -0.465449 -0.885074
outer loop
vertex -0.036758 0.009834 -0.005683
vertex -0.019977 0.005038 -0.003133
vertex -0.020061 0.004499 -0.002849
endloop
endfacet
facet normal -0.020633 -0.524782 -0.850986
outer loop
vertex -0.019977 0.005038 -0.003133
vertex -0.036758 0.009834 -0.005683
vertex -0.036261 0.010165 -0.005900
endloop
endfacet
facet normal -0.489247 0.483763 -0.725679
outer loop
vertex -0.033517 0.017735 -0.002703
vertex -0.036261 0.010165 -0.005900
vertex -0.035514 0.013887 -0.003922
endloop
endfacet
facet normal -0.595953 0.466783 -0.653417
outer loop
vertex -0.036261 0.010165 -0.005900
vertex -0.036758 0.009834 -0.005683
vertex -0.035514 0.013887 -0.003922
endloop
endfacet
facet normal -0.939220 -0.100854 0.328167
outer loop
vertex -0.011924 -0.016155 0.006057
vertex -0.012429 -0.015739 0.004740
vertex -0.011596 -0.020329 0.005714
endloop
endfacet
facet normal -0.960458 -0.121162 0.250678
outer loop
vertex -0.011596 -0.020329 0.005714
vertex -0.012429 -0.015739 0.004740
vertex -0.011685 -0.022892 0.004132
endloop
endfacet
facet normal -0.861014 -0.245058 0.445646
outer loop
vertex -0.011596 -0.020329 0.005714
vertex -0.011685 -0.022892 0.004132
vertex -0.010825 -0.024724 0.004786
endloop
endfacet
facet normal -0.914123 -0.369689 0.166461
outer loop
vertex -0.010825 -0.024724 0.004786
vertex -0.011685 -0.022892 0.004132
vertex -0.009397 -0.028913 0.003323
endloop
endfacet
facet normal -0.713423 -0.590937 0.376590
outer loop
vertex -0.009397 -0.028913 0.003323
vertex -0.007723 -0.031914 0.001787
vertex -0.005979 -0.033556 0.002512
endloop
endfacet
facet normal -0.715780 -0.663311 0.218352
outer loop
vertex -0.005979 -0.033556 0.002512
vertex -0.007723 -0.031914 0.001787
vertex -0.005682 -0.034581 0.000375
endloop
endfacet
facet normal -0.671282 -0.700457 0.242366
outer loop
vertex -0.005979 -0.033556 0.002512
vertex -0.005682 -0.034581 0.000375
vertex -0.002128 -0.037958 0.000455
endloop
endfacet
facet normal -0.671134 -0.700279 0.243287
outer loop
vertex -0.002128 -0.037958 0.000455
vertex -0.005682 -0.034581 0.000375
vertex -0.002488 -0.038033 -0.000752
endloop
endfacet
facet normal 0.905500 0.252717 -0.340887
outer loop
vertex 0.010208 -0.036672 -0.004739
vertex 0.009865 -0.036716 -0.005682
vertex 0.006498 -0.019340 -0.001743
endloop
endfacet
facet normal 0.900436 0.254439 -0.352810
outer loop
vertex 0.006498 -0.019340 -0.001743
vertex 0.009865 -0.036716 -0.005682
vertex 0.006135 -0.019589 -0.002850
endloop
endfacet
facet normal 0.554204 -0.761712 0.335637
outer loop
vertex 0.019970 -0.002175 0.006091
vertex 0.019829 -0.002873 0.004739
vertex 0.023496 0.000250 0.005770
endloop
endfacet
facet normal 0.595109 -0.772302 0.222250
outer loop
vertex 0.023496 0.000250 0.005770
vertex 0.019829 -0.002873 0.004739
vertex 0.026242 0.001884 0.004099
endloop
endfacet
facet normal 0.807212 -0.561585 0.181745
outer loop
vertex 0.029037 0.005930 0.004185
vertex 0.026242 0.001884 0.004099
vertex 0.030290 0.007155 0.002409
endloop
endfacet
facet normal 0.864758 -0.270215 0.423293
outer loop
vertex 0.029037 0.005930 0.004185
vertex 0.030290 0.007155 0.002409
vertex 0.032572 0.011711 0.000655
endloop
endfacet
facet normal 0.886452 -0.403086 0.227429
outer loop
vertex 0.029037 0.005930 0.004185
vertex 0.032572 0.011711 0.000655
vertex 0.032595 0.012490 0.001943
endloop
endfacet
facet normal 0.962478 -0.239661 0.127274
outer loop
vertex 0.032595 0.012490 0.001943
vertex 0.032572 0.011711 0.000655
vertex 0.033996 0.017252 0.000313
endloop
endfacet
facet normal 0.943268 -0.227666 0.241690
outer loop
vertex 0.033996 0.017252 0.000313
vertex 0.032572 0.011711 0.000655
vertex 0.034183 0.016897 -0.000751
endloop
endfacet
facet normal -0.673684 0.671090 -0.309497
outer loop
vertex 0.026646 0.027222 -0.004579
vertex 0.026866 0.026933 -0.005683
vertex 0.013514 0.015336 -0.001767
endloop
endfacet
facet normal -0.670174 0.651499 -0.355550
outer loop
vertex 0.013514 0.015336 -0.001767
vertex 0.026866 0.026933 -0.005683
vertex 0.013899 0.015141 -0.002851
endloop
endfacet
facet normal 0.750312 0.660674 -0.023288
outer loop
vertex 0.029534 0.024005 -0.002798
vertex 0.026866 0.026933 -0.005683
vertex 0.026646 0.027222 -0.004579
endloop
endfacet
facet normal 0.737978 0.674821 0.002478
outer loop
vertex 0.026866 0.026933 -0.005683
vertex 0.029534 0.024005 -0.002798
vertex 0.029817 0.023700 -0.004020
endloop
endfacet
facet normal 0.822735 0.566291 0.049217
outer loop
vertex 0.029817 0.023700 -0.004020
vertex 0.029534 0.024005 -0.002798
vertex 0.033996 0.017252 0.000313
endloop
endfacet
facet normal 0.847286 0.530405 -0.027870
outer loop
vertex 0.029817 0.023700 -0.004020
vertex 0.033996 0.017252 0.000313
vertex 0.034183 0.016897 -0.000751
endloop
endfacet
facet normal 0.180151 -0.983446 -0.019478
outer loop
vertex 0.004146 -0.037837 -0.001993
vertex 0.009865 -0.036716 -0.005682
vertex 0.010208 -0.036672 -0.004739
endloop
endfacet
facet normal 0.246190 -0.965178 0.088444
outer loop
vertex 0.009865 -0.036716 -0.005682
vertex 0.004146 -0.037837 -0.001993
vertex 0.005583 -0.037656 -0.004017
endloop
endfacet
facet normal 0.014824 -0.996788 -0.078702
outer loop
vertex 0.005583 -0.037656 -0.004017
vertex 0.004146 -0.037837 -0.001993
vertex -0.002488 -0.038033 -0.000752
endloop
endfacet
facet normal 0.038995 -0.997969 0.050366
outer loop
vertex -0.002488 -0.038033 -0.000752
vertex 0.004146 -0.037837 -0.001993
vertex -0.002128 -0.037958 0.000455
endloop
endfacet
facet normal 0.350838 -0.837331 0.419273
outer loop
vertex 0.010208 -0.036672 -0.004739
vertex 0.009995 -0.036465 -0.004148
vertex 0.004146 -0.037837 -0.001993
endloop
endfacet
facet normal -0.374702 -0.105177 0.921160
outer loop
vertex -0.011924 -0.016155 0.006057
vertex -0.011596 -0.020329 0.005714
vertex -0.011231 -0.016772 0.006269
endloop
endfacet
facet normal -0.050642 -0.148783 0.987572
outer loop
vertex -0.011231 -0.016772 0.006269
vertex -0.011596 -0.020329 0.005714
vertex -0.010525 -0.024222 0.005183
endloop
endfacet
facet normal -0.385469 -0.418645 0.822283
outer loop
vertex -0.010825 -0.024724 0.004786
vertex -0.009397 -0.028913 0.003323
vertex -0.010525 -0.024222 0.005183
endloop
endfacet
facet normal -0.371057 -0.417939 0.829243
outer loop
vertex -0.010525 -0.024222 0.005183
vertex -0.009397 -0.028913 0.003323
vertex -0.005979 -0.033556 0.002512
endloop
endfacet
facet normal -0.577661 -0.264352 0.772286
outer loop
vertex -0.010825 -0.024724 0.004786
vertex -0.010525 -0.024222 0.005183
vertex -0.011596 -0.020329 0.005714
endloop
endfacet
facet normal 0.945148 0.162021 0.283629
outer loop
vertex 0.006188 -0.019417 -0.001202
vertex 0.009995 -0.036465 -0.004148
vertex 0.010208 -0.036672 -0.004739
endloop
endfacet
facet normal 0.858034 0.096471 0.504452
outer loop
vertex 0.006188 -0.019417 -0.001202
vertex 0.010208 -0.036672 -0.004739
vertex 0.006498 -0.019340 -0.001743
endloop
endfacet
facet normal 0.422286 -0.329546 0.844437
outer loop
vertex 0.001641 -0.020143 0.000789
vertex 0.006188 -0.019417 -0.001202
vertex 0.006668 -0.018906 -0.001243
endloop
endfacet
facet normal 0.704687 -0.637315 0.311843
outer loop
vertex 0.006498 -0.019340 -0.001743
vertex 0.006668 -0.018906 -0.001243
vertex 0.006188 -0.019417 -0.001202
endloop
endfacet
facet normal -0.808482 -0.045551 -0.586755
outer loop
vertex -0.012108 -0.016047 0.004321
vertex -0.010640 -0.025636 0.003043
vertex -0.012429 -0.015739 0.004740
endloop
endfacet
facet normal -0.747509 -0.021298 -0.663910
outer loop
vertex -0.012429 -0.015739 0.004740
vertex -0.010640 -0.025636 0.003043
vertex -0.011685 -0.022892 0.004132
endloop
endfacet
facet normal -0.723101 -0.203984 -0.659936
outer loop
vertex -0.010640 -0.025636 0.003043
vertex -0.005682 -0.034581 0.000375
vertex -0.007723 -0.031914 0.001787
endloop
endfacet
facet normal -0.893123 -0.361425 -0.267775
outer loop
vertex -0.010640 -0.025636 0.003043
vertex -0.007723 -0.031914 0.001787
vertex -0.009397 -0.028913 0.003323
endloop
endfacet
facet normal -0.700931 -0.474645 -0.532361
outer loop
vertex -0.005682 -0.034581 0.000375
vertex -0.002270 -0.037706 -0.001331
vertex -0.002488 -0.038033 -0.000752
endloop
endfacet
facet normal -0.934961 -0.354730 -0.003801
outer loop
vertex -0.011685 -0.022892 0.004132
vertex -0.010640 -0.025636 0.003043
vertex -0.009397 -0.028913 0.003323
endloop
endfacet
facet normal 0.949023 -0.148886 -0.277828
outer loop
vertex 0.006498 -0.019340 -0.001743
vertex 0.006135 -0.019589 -0.002850
vertex 0.005901 -0.019193 -0.003859
endloop
endfacet
facet normal 0.959639 -0.060378 -0.274677
outer loop
vertex 0.005901 -0.019193 -0.003859
vertex 0.006668 -0.018906 -0.001243
vertex 0.006498 -0.019340 -0.001743
endloop
endfacet
facet normal -0.144625 -0.738385 -0.658689
outer loop
vertex 0.005626 -0.019787 -0.003133
vertex -0.000527 -0.020718 -0.000738
vertex 0.005901 -0.019193 -0.003859
endloop
endfacet
facet normal -0.259458 -0.542039 -0.799297
outer loop
vertex 0.005901 -0.019193 -0.003859
vertex -0.000527 -0.020718 -0.000738
vertex 0.000174 -0.020082 -0.001397
endloop
endfacet
facet normal -0.393612 -0.415457 -0.820039
outer loop
vertex 0.000174 -0.020082 -0.001397
vertex -0.000527 -0.020718 -0.000738
vertex -0.005327 -0.019415 0.000905
endloop
endfacet
facet normal -0.191747 -0.960566 0.201361
outer loop
vertex -0.005327 -0.019415 0.000905
vertex -0.000527 -0.020718 -0.000738
vertex -0.008322 -0.018481 0.002509
endloop
endfacet
facet normal 0.093234 0.492726 0.865175
outer loop
vertex 0.029534 0.024005 -0.002798
vertex 0.026589 0.026736 -0.004036
vertex 0.033534 0.017229 0.000630
endloop
endfacet
facet normal 0.433399 0.597252 0.674874
outer loop
vertex 0.029534 0.024005 -0.002798
vertex 0.033534 0.017229 0.000630
vertex 0.033996 0.017252 0.000313
endloop
endfacet
facet normal 0.357719 0.677210 0.642980
outer loop
vertex 0.026646 0.027222 -0.004579
vertex 0.026589 0.026736 -0.004036
vertex 0.029534 0.024005 -0.002798
endloop
endfacet
facet normal 0.467861 0.333344 0.818528
outer loop
vertex 0.019935 0.002570 0.005055
vertex 0.020027 -0.001110 0.006501
vertex 0.020630 -0.000896 0.006070
endloop
endfacet
facet normal 0.981826 0.176464 -0.069845
outer loop
vertex 0.018978 0.007034 0.002871
vertex 0.019935 0.002570 0.005055
vertex 0.020630 -0.000896 0.006070
endloop
endfacet
facet normal 0.121977 -0.046255 0.991455
outer loop
vertex 0.019970 -0.002175 0.006091
vertex 0.023496 0.000250 0.005770
vertex 0.020630 -0.000896 0.006070
endloop
endfacet
facet normal 0.645102 -0.458696 0.611099
outer loop
vertex 0.023496 0.000250 0.005770
vertex 0.026242 0.001884 0.004099
vertex 0.029037 0.005930 0.004185
endloop
endfacet
facet normal 0.824995 -0.279627 0.491114
outer loop
vertex 0.029037 0.005930 0.004185
vertex 0.032595 0.012490 0.001943
vertex 0.030522 0.009000 0.003439
endloop
endfacet
facet normal 0.351460 0.184618 0.917819
outer loop
vertex 0.033534 0.017229 0.000630
vertex 0.030522 0.009000 0.003439
vertex 0.032595 0.012490 0.001943
endloop
endfacet
facet normal 0.557985 0.117020 0.821559
outer loop
vertex 0.033534 0.017229 0.000630
vertex 0.032595 0.012490 0.001943
vertex 0.033996 0.017252 0.000313
endloop
endfacet
facet normal 0.071552 0.202747 0.976614
outer loop
vertex 0.030522 0.009000 0.003439
vertex 0.023496 0.000250 0.005770
vertex 0.029037 0.005930 0.004185
endloop
endfacet
facet normal -0.545524 0.713244 0.440099
outer loop
vertex 0.026589 0.026736 -0.004036
vertex 0.013514 0.015336 -0.001767
vertex 0.013770 0.015210 -0.001246
endloop
endfacet
facet normal -0.492425 0.674289 0.550320
outer loop
vertex 0.026589 0.026736 -0.004036
vertex 0.026646 0.027222 -0.004579
vertex 0.013514 0.015336 -0.001767
endloop
endfacet
facet normal 0.035237 0.506999 0.861226
outer loop
vertex 0.013770 0.015210 -0.001246
vertex 0.013116 0.015222 -0.001226
vertex 0.016212 0.012011 0.000538
endloop
endfacet
facet normal 0.623550 -0.309971 0.717707
outer loop
vertex 0.019970 -0.002175 0.006091
vertex 0.020630 -0.000896 0.006070
vertex 0.020027 -0.001110 0.006501
endloop
endfacet
facet normal 0.025231 0.974279 0.223929
outer loop
vertex 0.013770 0.015210 -0.001246
vertex 0.013514 0.015336 -0.001767
vertex 0.013116 0.015222 -0.001226
endloop
endfacet
facet normal 0.430287 -0.676979 -0.597120
outer loop
vertex 0.019957 -0.002423 0.004320
vertex 0.027130 0.003109 0.003218
vertex 0.019829 -0.002873 0.004739
endloop
endfacet
facet normal 0.479092 -0.714388 -0.510020
outer loop
vertex 0.019829 -0.002873 0.004739
vertex 0.027130 0.003109 0.003218
vertex 0.026242 0.001884 0.004099
endloop
endfacet
facet normal 0.473517 -0.512880 -0.716056
outer loop
vertex 0.027130 0.003109 0.003218
vertex 0.032572 0.011711 0.000655
vertex 0.030290 0.007155 0.002409
endloop
endfacet
facet normal 0.759247 -0.379375 -0.528790
outer loop
vertex 0.032572 0.011711 0.000655
vertex 0.033790 0.016917 -0.001331
vertex 0.034183 0.016897 -0.000751
endloop
endfacet
facet normal 0.777246 -0.623632 -0.083499
outer loop
vertex 0.026242 0.001884 0.004099
vertex 0.027130 0.003109 0.003218
vertex 0.030290 0.007155 0.002409
endloop
endfacet
facet normal -0.321117 0.905474 -0.277490
outer loop
vertex 0.013514 0.015336 -0.001767
vertex 0.013899 0.015141 -0.002851
vertex 0.013660 0.014741 -0.003878
endloop
endfacet
facet normal -0.573114 0.777528 -0.258825
outer loop
vertex 0.013660 0.014741 -0.003878
vertex 0.013116 0.015222 -0.001226
vertex 0.013514 0.015336 -0.001767
endloop
endfacet
facet normal 0.713839 0.247190 -0.655233
outer loop
vertex 0.014324 0.014800 -0.003133
vertex 0.018203 0.009937 -0.000741
vertex 0.013660 0.014741 -0.003878
endloop
endfacet
facet normal 0.598767 0.044020 -0.799713
outer loop
vertex 0.013660 0.014741 -0.003878
vertex 0.018203 0.009937 -0.000741
vertex 0.017306 0.010228 -0.001396
endloop
endfacet
facet normal 0.555789 -0.134749 -0.820330
outer loop
vertex 0.017306 0.010228 -0.001396
vertex 0.018203 0.009937 -0.000741
vertex 0.019493 0.005098 0.000928
endloop
endfacet
facet normal 0.927513 0.316042 0.199591
outer loop
vertex 0.019493 0.005098 0.000928
vertex 0.018203 0.009937 -0.000741
vertex 0.020170 0.002126 0.002487
endloop
endfacet
facet normal 0.520608 -0.746877 -0.413693
outer loop
vertex 0.005626 -0.019787 -0.003133
vertex 0.005901 -0.019193 -0.003859
vertex 0.006135 -0.019589 -0.002850
endloop
endfacet
facet normal 0.401599 0.233857 -0.885454
outer loop
vertex 0.009865 -0.036716 -0.005682
vertex 0.005626 -0.019787 -0.003133
vertex 0.006135 -0.019589 -0.002850
endloop
endfacet
facet normal 0.467157 0.244871 -0.849590
outer loop
vertex 0.005626 -0.019787 -0.003133
vertex 0.009865 -0.036716 -0.005682
vertex 0.009332 -0.036453 -0.005899
endloop
endfacet
facet normal -0.288955 -0.434450 -0.853088
outer loop
vertex 0.005583 -0.037656 -0.004017
vertex -0.002270 -0.037706 -0.001331
vertex 0.009332 -0.036453 -0.005899
endloop
endfacet
facet normal -0.095481 -0.741647 -0.663960
outer loop
vertex 0.009332 -0.036453 -0.005899
vertex 0.009865 -0.036716 -0.005682
vertex 0.005583 -0.037656 -0.004017
endloop
endfacet
facet normal -0.177372 -0.826551 -0.534184
outer loop
vertex -0.002270 -0.037706 -0.001331
vertex 0.005583 -0.037656 -0.004017
vertex -0.002488 -0.038033 -0.000752
endloop
endfacet
facet normal 0.388879 0.824459 -0.411145
outer loop
vertex 0.014324 0.014800 -0.003133
vertex 0.013660 0.014741 -0.003878
vertex 0.013899 0.015141 -0.002851
endloop
endfacet
facet normal -0.403452 0.230992 -0.885364
outer loop
vertex 0.026866 0.026933 -0.005683
vertex 0.014324 0.014800 -0.003133
vertex 0.013899 0.015141 -0.002851
endloop
endfacet
facet normal -0.443998 0.280098 -0.851124
outer loop
vertex 0.014324 0.014800 -0.003133
vertex 0.026866 0.026933 -0.005683
vertex 0.026905 0.026336 -0.005899
endloop
endfacet
facet normal 0.520515 -0.033353 -0.853201
outer loop
vertex 0.029817 0.023700 -0.004020
vertex 0.033790 0.016917 -0.001331
vertex 0.026905 0.026336 -0.005899
endloop
endfacet
facet normal 0.688964 0.286343 -0.665836
outer loop
vertex 0.026905 0.026336 -0.005899
vertex 0.026866 0.026933 -0.005683
vertex 0.029817 0.023700 -0.004020
endloop
endfacet
facet normal 0.803443 0.257822 -0.536663
outer loop
vertex 0.033790 0.016917 -0.001331
vertex 0.029817 0.023700 -0.004020
vertex 0.034183 0.016897 -0.000751
endloop
endfacet
endsolid Exported from Blender-2.93.4
