solid Exported from Blender-2.93.4
facet normal -0.457185 -0.561562 -0.689659
outer loop
vertex -0.035437 0.012754 0.009017
vertex -0.015676 0.013471 -0.004667
vertex -0.027094 0.009812 0.005882
endloop
endfacet
facet normal -0.484148 -0.519332 -0.704198
outer loop
vertex -0.027094 0.009812 0.005882
vertex -0.015676 0.013471 -0.004667
vertex -0.019403 0.006419 0.003097
endloop
endfacet
facet normal -0.470755 -0.527160 -0.707455
outer loop
vertex -0.035437 0.012754 0.009017
vertex -0.031261 0.021191 -0.000049
vertex -0.015676 0.013471 -0.004667
endloop
endfacet
facet normal -0.468094 -0.515741 -0.717565
outer loop
vertex -0.015676 0.013471 -0.004667
vertex -0.031261 0.021191 -0.000049
vertex -0.017283 0.020404 -0.008601
endloop
endfacet
facet normal -0.483556 -0.514131 -0.708408
outer loop
vertex -0.015676 0.013471 -0.004667
vertex -0.017283 0.020404 -0.008601
vertex -0.011357 0.017157 -0.010290
endloop
endfacet
facet normal 0.458070 0.543606 0.703324
outer loop
vertex -0.030163 0.022322 0.000907
vertex -0.034277 0.013823 0.010155
vertex -0.016546 0.012352 -0.000256
endloop
endfacet
facet normal 0.455931 0.540219 0.707312
outer loop
vertex -0.030163 0.022322 0.000907
vertex -0.016546 0.012352 -0.000256
vertex -0.020838 0.022217 -0.005024
endloop
endfacet
facet normal 0.462589 0.540804 0.702526
outer loop
vertex -0.020838 0.022217 -0.005024
vertex -0.016546 0.012352 -0.000256
vertex -0.009370 0.017777 -0.009157
endloop
endfacet
facet normal 0.465930 0.587457 0.661667
outer loop
vertex -0.020838 0.022217 -0.005024
vertex -0.009370 0.017777 -0.009157
vertex -0.013261 0.019972 -0.008366
endloop
endfacet
facet normal 0.468821 0.500658 0.727701
outer loop
vertex -0.034277 0.013823 0.010155
vertex -0.027444 0.011324 0.007472
vertex -0.016546 0.012352 -0.000256
endloop
endfacet
facet normal 0.465148 0.509755 0.723732
outer loop
vertex -0.016546 0.012352 -0.000256
vertex -0.027444 0.011324 0.007472
vertex -0.019565 0.007600 0.005032
endloop
endfacet
facet normal -0.223874 0.677112 -0.700999
outer loop
vertex 0.019102 0.007683 -0.003752
vertex 0.021581 0.018133 0.005550
vertex 0.031787 0.012087 -0.003548
endloop
endfacet
facet normal -0.218349 0.661942 -0.717047
outer loop
vertex 0.019102 0.007683 -0.003752
vertex 0.031787 0.012087 -0.003548
vertex 0.023953 0.002885 -0.009658
endloop
endfacet
facet normal -0.214209 0.677322 -0.703811
outer loop
vertex 0.019102 0.007683 -0.003752
vertex 0.015265 0.013602 0.003113
vertex 0.021581 0.018133 0.005550
endloop
endfacet
facet normal -0.233882 0.668175 -0.706287
outer loop
vertex 0.031787 0.012087 -0.003548
vertex 0.021581 0.018133 0.005550
vertex 0.028751 0.024297 0.009007
endloop
endfacet
facet normal -0.197085 0.678623 -0.707551
outer loop
vertex 0.031787 0.012087 -0.003548
vertex 0.028751 0.024297 0.009007
vertex 0.034052 0.016484 0.000038
endloop
endfacet
facet normal -0.204141 0.671036 -0.712768
outer loop
vertex 0.019102 0.007683 -0.003752
vertex 0.023953 0.002885 -0.009658
vertex 0.020764 0.001288 -0.010248
endloop
endfacet
facet normal 0.242047 -0.666118 0.705479
outer loop
vertex 0.034366 0.015770 0.001741
vertex 0.029113 0.022773 0.010156
vertex 0.030046 0.007401 -0.004680
endloop
endfacet
facet normal 0.221564 -0.670157 0.708377
outer loop
vertex 0.029113 0.022773 0.010156
vertex 0.023495 0.018055 0.007449
vertex 0.030046 0.007401 -0.004680
endloop
endfacet
facet normal 0.240470 -0.661148 0.710674
outer loop
vertex 0.030046 0.007401 -0.004680
vertex 0.023495 0.018055 0.007449
vertex 0.018797 0.008577 0.000221
endloop
endfacet
facet normal 0.205501 -0.655817 0.726411
outer loop
vertex 0.018797 0.008577 0.000221
vertex 0.023495 0.018055 0.007449
vertex 0.016368 0.013145 0.005032
endloop
endfacet
facet normal 0.233270 -0.677067 0.697972
outer loop
vertex 0.030046 0.007401 -0.004680
vertex 0.018797 0.008577 0.000221
vertex 0.023928 0.001498 -0.008361
endloop
endfacet
facet normal 0.265850 -0.659594 0.703036
outer loop
vertex 0.023928 0.001498 -0.008361
vertex 0.018797 0.008577 0.000221
vertex 0.020109 -0.000581 -0.008868
endloop
endfacet
facet normal -0.987788 0.154269 -0.021802
outer loop
vertex 0.018686 -0.000019 -0.010792
vertex 0.018374 0.001015 0.010650
vertex 0.018761 0.000528 -0.010330
endloop
endfacet
facet normal 0.823927 0.566692 0.002046
outer loop
vertex 0.018761 0.000528 -0.010330
vertex 0.018374 0.001015 0.010650
vertex 0.018966 0.000259 -0.018350
endloop
endfacet
facet normal -0.986396 0.161514 -0.030603
outer loop
vertex 0.018761 0.000528 -0.010330
vertex 0.018966 0.000259 -0.018350
vertex 0.018686 -0.000019 -0.010792
endloop
endfacet
facet normal -0.999253 -0.009771 -0.037388
outer loop
vertex 0.018686 -0.000019 -0.010792
vertex 0.018966 0.000259 -0.018350
vertex 0.017931 -0.004897 0.010650
endloop
endfacet
facet normal -0.980288 0.197575 0.000152
outer loop
vertex 0.017931 -0.004897 0.010650
vertex 0.018966 0.000259 -0.018350
vertex 0.017266 -0.008172 -0.018350
endloop
endfacet
facet normal -0.865136 0.500196 -0.036664
outer loop
vertex 0.017931 -0.004897 0.010650
vertex 0.017266 -0.008172 -0.018350
vertex 0.013179 -0.013115 0.010650
endloop
endfacet
facet normal -0.793265 0.608823 -0.008017
outer loop
vertex 0.013179 -0.013115 0.010650
vertex 0.017266 -0.008172 -0.018350
vertex 0.012862 -0.013911 -0.018350
endloop
endfacet
facet normal -0.543385 0.839310 -0.017075
outer loop
vertex 0.013179 -0.013115 0.010650
vertex 0.012862 -0.013911 -0.018350
vertex 0.006812 -0.017828 -0.018350
endloop
endfacet
facet normal -0.536366 0.843764 -0.019340
outer loop
vertex 0.013179 -0.013115 0.010650
vertex 0.006812 -0.017828 -0.018350
vertex 0.006881 -0.017119 0.010650
endloop
endfacet
facet normal -0.241283 0.970179 -0.023136
outer loop
vertex 0.006881 -0.017119 0.010650
vertex 0.006812 -0.017828 -0.018350
vertex 0.003272 -0.018157 0.004739
endloop
endfacet
facet normal -0.140060 0.990116 -0.007333
outer loop
vertex 0.003272 -0.018157 0.004739
vertex 0.006812 -0.017828 -0.018350
vertex -0.001224 -0.018964 -0.018350
endloop
endfacet
facet normal -0.146774 0.989152 -0.005992
outer loop
vertex 0.003272 -0.018157 0.004739
vertex -0.001224 -0.018964 -0.018350
vertex -0.000177 -0.018633 0.010650
endloop
endfacet
facet normal 0.235670 0.971636 -0.019592
outer loop
vertex -0.000177 -0.018633 0.010650
vertex -0.001224 -0.018964 -0.018350
vertex -0.007316 -0.017487 -0.018350
endloop
endfacet
facet normal 0.586083 -0.809417 -0.036767
outer loop
vertex -0.009347 0.016193 -0.010779
vertex -0.005815 0.017778 0.010650
vertex -0.012985 0.013903 -0.018350
endloop
endfacet
facet normal 0.533268 -0.845947 -0.000338
outer loop
vertex -0.009347 0.016193 -0.010779
vertex -0.012985 0.013903 -0.018350
vertex -0.007026 0.017659 -0.018350
endloop
endfacet
facet normal 0.493587 -0.869529 -0.017074
outer loop
vertex -0.009347 0.016193 -0.010779
vertex -0.007026 0.017659 -0.018350
vertex -0.005815 0.017778 0.010650
endloop
endfacet
facet normal 0.508684 0.860886 -0.010781
outer loop
vertex -0.009348 -0.016191 -0.010781
vertex -0.008581 -0.016376 0.010650
vertex -0.007316 -0.017487 -0.018350
endloop
endfacet
facet normal 0.500256 0.865766 -0.013879
outer loop
vertex -0.009348 -0.016191 -0.010781
vertex -0.007316 -0.017487 -0.018350
vertex -0.011406 -0.015123 -0.018350
endloop
endfacet
facet normal 0.489231 0.872097 -0.009988
outer loop
vertex -0.009348 -0.016191 -0.010781
vertex -0.011406 -0.015123 -0.018350
vertex -0.008581 -0.016376 0.010650
endloop
endfacet
facet normal -0.209599 0.976813 -0.043649
outer loop
vertex 0.003272 -0.018157 0.004739
vertex -0.000177 -0.018633 0.010650
vertex 0.006881 -0.017119 0.010650
endloop
endfacet
facet normal -0.997042 0.074694 -0.018099
outer loop
vertex 0.017931 -0.004897 0.010650
vertex 0.018374 0.001015 0.010650
vertex 0.018686 -0.000019 -0.010792
endloop
endfacet
facet normal -0.984779 -0.173114 -0.015585
outer loop
vertex 0.018966 0.000259 -0.018350
vertex 0.018374 0.001015 0.010650
vertex 0.017670 0.007630 -0.018350
endloop
endfacet
facet normal -0.976357 -0.214681 -0.025272
outer loop
vertex 0.017670 0.007630 -0.018350
vertex 0.018374 0.001015 0.010650
vertex 0.016748 0.008408 0.010650
endloop
endfacet
facet normal -0.788814 -0.614572 -0.008594
outer loop
vertex 0.017670 0.007630 -0.018350
vertex 0.016748 0.008408 0.010650
vertex 0.014086 0.011907 0.004741
endloop
endfacet
facet normal -0.752157 -0.657064 -0.050269
outer loop
vertex 0.014086 0.011907 0.004741
vertex 0.016748 0.008408 0.010650
vertex 0.011472 0.014447 0.010650
endloop
endfacet
facet normal -0.712955 -0.701070 -0.014010
outer loop
vertex 0.014086 0.011907 0.004741
vertex 0.011472 0.014447 0.010650
vertex 0.010670 0.015843 -0.018350
endloop
endfacet
facet normal -0.471094 -0.881593 -0.029383
outer loop
vertex 0.010670 0.015843 -0.018350
vertex 0.011472 0.014447 0.010650
vertex 0.004992 0.017910 0.010650
endloop
endfacet
facet normal -0.329065 -0.944303 0.002900
outer loop
vertex 0.010670 0.015843 -0.018350
vertex 0.004992 0.017910 0.010650
vertex 0.001484 0.019044 -0.018350
endloop
endfacet
facet normal 0.012288 -0.999103 -0.040530
outer loop
vertex 0.001484 0.019044 -0.018350
vertex 0.004992 0.017910 0.010650
vertex -0.005815 0.017778 0.010650
endloop
endfacet
facet normal 0.160562 -0.987022 -0.002685
outer loop
vertex 0.001484 0.019044 -0.018350
vertex -0.005815 0.017778 0.010650
vertex -0.007026 0.017659 -0.018350
endloop
endfacet
facet normal 0.582517 -0.812041 -0.035534
outer loop
vertex -0.005815 0.017778 0.010650
vertex -0.014734 0.011379 0.010650
vertex -0.012985 0.013903 -0.018350
endloop
endfacet
facet normal 0.814715 -0.579860 -0.001327
outer loop
vertex -0.012985 0.013903 -0.018350
vertex -0.014734 0.011379 0.010650
vertex -0.017329 0.007800 -0.018350
endloop
endfacet
facet normal 0.903166 -0.428382 -0.027937
outer loop
vertex -0.017329 0.007800 -0.018350
vertex -0.014734 0.011379 0.010650
vertex -0.017353 0.006243 0.004740
endloop
endfacet
facet normal 0.909876 -0.414004 -0.026961
outer loop
vertex -0.017329 0.007800 -0.018350
vertex -0.017353 0.006243 0.004740
vertex -0.017717 0.005058 0.010650
endloop
endfacet
facet normal 0.903955 -0.426584 -0.029850
outer loop
vertex -0.014734 0.011379 0.010650
vertex -0.017717 0.005058 0.010650
vertex -0.017353 0.006243 0.004740
endloop
endfacet
facet normal 0.978474 -0.206271 -0.006402
outer loop
vertex -0.017329 0.007800 -0.018350
vertex -0.017717 0.005058 0.010650
vertex -0.019090 -0.000557 -0.018350
endloop
endfacet
facet normal 0.993955 -0.106561 -0.026439
outer loop
vertex -0.019090 -0.000557 -0.018350
vertex -0.017717 0.005058 0.010650
vertex -0.018478 -0.002037 0.010650
endloop
endfacet
facet normal 0.959050 0.283177 -0.005803
outer loop
vertex -0.019090 -0.000557 -0.018350
vertex -0.018478 -0.002037 0.010650
vertex -0.016332 -0.009901 -0.018350
endloop
endfacet
facet normal 0.931848 0.361680 -0.029102
outer loop
vertex -0.016332 -0.009901 -0.018350
vertex -0.018478 -0.002037 0.010650
vertex -0.015015 -0.010960 0.010650
endloop
endfacet
facet normal 0.727459 0.686105 -0.007974
outer loop
vertex -0.016332 -0.009901 -0.018350
vertex -0.015015 -0.010960 0.010650
vertex -0.011406 -0.015123 -0.018350
endloop
endfacet
facet normal 0.643726 0.764680 -0.029677
outer loop
vertex -0.011406 -0.015123 -0.018350
vertex -0.015015 -0.010960 0.010650
vertex -0.008581 -0.016376 0.010650
endloop
endfacet
facet normal 0.259339 0.965445 -0.025663
outer loop
vertex -0.007316 -0.017487 -0.018350
vertex -0.008581 -0.016376 0.010650
vertex -0.000177 -0.018633 0.010650
endloop
endfacet
facet normal -0.761052 -0.648688 0.002033
outer loop
vertex 0.010670 0.015843 -0.018350
vertex 0.017670 0.007630 -0.018350
vertex 0.014086 0.011907 0.004741
endloop
endfacet
facet normal 0.997735 -0.066710 -0.008671
outer loop
vertex 0.019902 -0.002449 -0.018350
vertex 0.020120 -0.000225 -0.010338
vertex 0.020109 -0.000581 -0.008868
endloop
endfacet
facet normal 0.994936 -0.100492 -0.001957
outer loop
vertex 0.019902 -0.002449 -0.018350
vertex 0.020109 -0.000581 -0.008868
vertex 0.019814 -0.003903 0.011666
endloop
endfacet
facet normal 0.999776 0.013246 0.016511
outer loop
vertex 0.020109 -0.000581 -0.008868
vertex 0.020025 0.002201 -0.005969
vertex 0.019814 -0.003903 0.011666
endloop
endfacet
facet normal 0.998367 0.049241 0.028953
outer loop
vertex 0.019814 -0.003903 0.011666
vertex 0.020025 0.002201 -0.005969
vertex 0.019332 0.005873 0.011666
endloop
endfacet
facet normal 0.963642 0.266612 -0.017669
outer loop
vertex 0.019332 0.005873 0.011666
vertex 0.020025 0.002201 -0.005969
vertex 0.018593 0.007801 0.000430
endloop
endfacet
facet normal 0.871786 0.489166 0.026556
outer loop
vertex 0.019332 0.005873 0.011666
vertex 0.018593 0.007801 0.000430
vertex 0.015504 0.012695 0.011666
endloop
endfacet
facet normal 0.864022 0.503121 0.018345
outer loop
vertex 0.015504 0.012695 0.011666
vertex 0.018593 0.007801 0.000430
vertex 0.015746 0.012504 0.005490
endloop
endfacet
facet normal 0.735033 0.677985 0.007885
outer loop
vertex 0.015504 0.012695 0.011666
vertex 0.015746 0.012504 0.005490
vertex 0.014353 0.014028 0.004291
endloop
endfacet
facet normal 0.607476 0.793953 -0.024731
outer loop
vertex 0.014353 0.014028 0.004291
vertex 0.016469 0.011704 -0.018350
vertex 0.010054 0.017547 0.011666
endloop
endfacet
facet normal 0.664665 0.746487 0.031254
outer loop
vertex 0.014353 0.014028 0.004291
vertex 0.010054 0.017547 0.011666
vertex 0.015504 0.012695 0.011666
endloop
endfacet
facet normal 0.796744 0.604189 0.012435
outer loop
vertex 0.016469 0.011704 -0.018350
vertex 0.014353 0.014028 0.004291
vertex 0.017239 0.010340 -0.001388
endloop
endfacet
facet normal 0.916373 0.400216 -0.009399
outer loop
vertex 0.016469 0.011704 -0.018350
vertex 0.017239 0.010340 -0.001388
vertex 0.019441 0.005167 -0.006946
endloop
endfacet
facet normal 0.925904 0.376914 -0.025240
outer loop
vertex 0.016469 0.011704 -0.018350
vertex 0.019441 0.005167 -0.006946
vertex 0.019790 0.003545 -0.018350
endloop
endfacet
facet normal 0.989646 0.143183 0.009958
outer loop
vertex 0.019790 0.003545 -0.018350
vertex 0.019441 0.005167 -0.006946
vertex 0.020068 0.001105 -0.010835
endloop
endfacet
facet normal 0.999351 0.018622 -0.030843
outer loop
vertex 0.019790 0.003545 -0.018350
vertex 0.020068 0.001105 -0.010835
vertex 0.019902 -0.002449 -0.018350
endloop
endfacet
facet normal 0.999048 0.026575 -0.034596
outer loop
vertex 0.019902 -0.002449 -0.018350
vertex 0.020068 0.001105 -0.010835
vertex 0.020120 -0.000225 -0.010338
endloop
endfacet
facet normal -0.372832 0.927610 -0.023165
outer loop
vertex -0.010439 0.017117 -0.018350
vertex -0.009871 0.017546 -0.010336
vertex -0.009370 0.017777 -0.009157
endloop
endfacet
facet normal -0.384939 0.922694 -0.021405
outer loop
vertex -0.010439 0.017117 -0.018350
vertex -0.009370 0.017777 -0.009157
vertex -0.003916 0.019839 -0.018350
endloop
endfacet
facet normal -0.347089 0.937822 0.004445
outer loop
vertex -0.003916 0.019839 -0.018350
vertex -0.009370 0.017777 -0.009157
vertex -0.010781 0.017156 0.011666
endloop
endfacet
facet normal -0.551091 0.834352 -0.012459
outer loop
vertex -0.010781 0.017156 0.011666
vertex -0.009370 0.017777 -0.009157
vertex -0.013205 0.015315 -0.004400
endloop
endfacet
facet normal -0.735789 0.676381 0.033517
outer loop
vertex -0.010781 0.017156 0.011666
vertex -0.013205 0.015315 -0.004400
vertex -0.017616 0.009721 0.011666
endloop
endfacet
facet normal -0.750129 0.660850 0.024173
outer loop
vertex -0.017616 0.009721 0.011666
vertex -0.013205 0.015315 -0.004400
vertex -0.016993 0.010782 0.001975
endloop
endfacet
facet normal -0.897464 0.440988 -0.009383
outer loop
vertex -0.017616 0.009721 0.011666
vertex -0.016993 0.010782 0.001975
vertex -0.018701 0.007381 0.005490
endloop
endfacet
facet normal -0.962349 0.262773 0.069528
outer loop
vertex -0.017616 0.009721 0.011666
vertex -0.018701 0.007381 0.005490
vertex -0.019324 0.005415 0.004294
endloop
endfacet
facet normal -0.941892 0.335161 0.022508
outer loop
vertex -0.017616 0.009721 0.011666
vertex -0.019324 0.005415 0.004294
vertex -0.019639 0.004035 0.011666
endloop
endfacet
facet normal -0.973624 0.228156 0.001124
outer loop
vertex -0.019639 0.004035 0.011666
vertex -0.019324 0.005415 0.004294
vertex -0.019719 0.003841 -0.018350
endloop
endfacet
facet normal -0.931742 0.363009 -0.008981
outer loop
vertex -0.019719 0.003841 -0.018350
vertex -0.019324 0.005415 0.004294
vertex -0.017573 0.009768 -0.001375
endloop
endfacet
facet normal -0.921243 0.388513 -0.019213
outer loop
vertex -0.019719 0.003841 -0.018350
vertex -0.017573 0.009768 -0.001375
vertex -0.016337 0.011859 -0.018350
endloop
endfacet
facet normal -0.783297 0.621341 0.019514
outer loop
vertex -0.016337 0.011859 -0.018350
vertex -0.017573 0.009768 -0.001375
vertex -0.014234 0.014156 -0.007068
endloop
endfacet
facet normal -0.665197 0.746146 -0.027915
outer loop
vertex -0.016337 0.011859 -0.018350
vertex -0.014234 0.014156 -0.007068
vertex -0.010439 0.017117 -0.018350
endloop
endfacet
facet normal -0.640358 0.767952 -0.013837
outer loop
vertex -0.010439 0.017117 -0.018350
vertex -0.014234 0.014156 -0.007068
vertex -0.011194 0.016622 -0.010931
endloop
endfacet
facet normal -0.571631 0.820504 -0.003342
outer loop
vertex -0.010439 0.017117 -0.018350
vertex -0.011194 0.016622 -0.010931
vertex -0.009871 0.017546 -0.010336
endloop
endfacet
facet normal -0.782985 -0.585269 -0.210702
outer loop
vertex -0.006779 -0.019050 -0.018350
vertex -0.010209 -0.017334 -0.010372
vertex -0.010992 -0.016736 -0.009123
endloop
endfacet
facet normal -0.523356 -0.851737 -0.025346
outer loop
vertex -0.006779 -0.019050 -0.018350
vertex -0.010992 -0.016736 -0.009123
vertex -0.013584 -0.014868 -0.018350
endloop
endfacet
facet normal -0.580931 -0.813952 -0.001521
outer loop
vertex -0.013584 -0.014868 -0.018350
vertex -0.010992 -0.016736 -0.009123
vertex -0.011773 -0.016217 0.011666
endloop
endfacet
facet normal -0.487472 -0.873132 0.003469
outer loop
vertex -0.011773 -0.016217 0.011666
vertex -0.010992 -0.016736 -0.009123
vertex -0.007033 -0.018929 -0.004786
endloop
endfacet
facet normal -0.462579 -0.886485 0.012841
outer loop
vertex -0.011773 -0.016217 0.011666
vertex -0.007033 -0.018929 -0.004786
vertex -0.006193 -0.019129 0.011666
endloop
endfacet
facet normal -0.208873 -0.977942 -0.001223
outer loop
vertex -0.006193 -0.019129 0.011666
vertex -0.007033 -0.018929 -0.004786
vertex -0.001533 -0.020111 0.001216
endloop
endfacet
facet normal -0.144887 -0.989042 0.028357
outer loop
vertex -0.006193 -0.019129 0.011666
vertex -0.001533 -0.020111 0.001216
vertex 0.000061 -0.020045 0.011666
endloop
endfacet
facet normal 0.048185 -0.998838 -0.001031
outer loop
vertex 0.000061 -0.020045 0.011666
vertex -0.001533 -0.020111 0.001216
vertex 0.002959 -0.019899 0.005476
endloop
endfacet
facet normal 0.122246 -0.991924 0.033803
outer loop
vertex 0.000061 -0.020045 0.011666
vertex 0.002959 -0.019899 0.005476
vertex 0.004649 -0.019480 0.011666
endloop
endfacet
facet normal 0.226441 -0.974016 0.004145
outer loop
vertex 0.004649 -0.019480 0.011666
vertex 0.002959 -0.019899 0.005476
vertex 0.004158 -0.019621 0.005205
endloop
endfacet
facet normal -0.030905 -0.999228 0.024269
outer loop
vertex 0.004158 -0.019621 0.005205
vertex 0.004384 -0.019678 0.003152
vertex 0.004649 -0.019480 0.011666
endloop
endfacet
facet normal 0.390966 -0.920358 0.009327
outer loop
vertex 0.004649 -0.019480 0.011666
vertex 0.004384 -0.019678 0.003152
vertex 0.010469 -0.017312 -0.018350
endloop
endfacet
facet normal 0.310774 -0.950338 -0.016666
outer loop
vertex 0.010469 -0.017312 -0.018350
vertex 0.004384 -0.019678 0.003152
vertex 0.002308 -0.019980 -0.018350
endloop
endfacet
facet normal 0.101763 -0.994800 0.004146
outer loop
vertex 0.004384 -0.019678 0.003152
vertex 0.000397 -0.020105 -0.001309
vertex 0.002308 -0.019980 -0.018350
endloop
endfacet
facet normal -0.101854 -0.994624 -0.018687
outer loop
vertex 0.002308 -0.019980 -0.018350
vertex 0.000397 -0.020105 -0.001309
vertex -0.006779 -0.019050 -0.018350
endloop
endfacet
facet normal -0.108350 -0.993985 -0.015913
outer loop
vertex -0.006779 -0.019050 -0.018350
vertex 0.000397 -0.020105 -0.001309
vertex -0.005120 -0.019412 -0.007053
endloop
endfacet
facet normal -0.373782 -0.927174 0.025211
outer loop
vertex -0.006779 -0.019050 -0.018350
vertex -0.005120 -0.019412 -0.007053
vertex -0.008831 -0.018018 -0.010823
endloop
endfacet
facet normal -0.444441 -0.895807 0.001646
outer loop
vertex -0.006779 -0.019050 -0.018350
vertex -0.008831 -0.018018 -0.010823
vertex -0.010209 -0.017334 -0.010372
endloop
endfacet
facet normal 0.956375 -0.291922 -0.011344
outer loop
vertex 0.019902 -0.002449 -0.018350
vertex 0.019814 -0.003903 0.011666
vertex 0.017650 -0.009828 -0.018350
endloop
endfacet
facet normal 0.911544 -0.410916 0.015377
outer loop
vertex 0.017650 -0.009828 -0.018350
vertex 0.019814 -0.003903 0.011666
vertex 0.016207 -0.011904 0.011666
endloop
endfacet
facet normal 0.721510 -0.692278 -0.013224
outer loop
vertex 0.017650 -0.009828 -0.018350
vertex 0.016207 -0.011904 0.011666
vertex 0.010469 -0.017312 -0.018350
endloop
endfacet
facet normal 0.680750 -0.732514 0.001817
outer loop
vertex 0.010469 -0.017312 -0.018350
vertex 0.016207 -0.011904 0.011666
vertex 0.010688 -0.017033 0.011666
endloop
endfacet
facet normal 0.375448 -0.926825 0.005850
outer loop
vertex 0.010469 -0.017312 -0.018350
vertex 0.010688 -0.017033 0.011666
vertex 0.004649 -0.019480 0.011666
endloop
endfacet
facet normal 0.626499 0.779219 -0.017797
outer loop
vertex 0.016469 0.011704 -0.018350
vertex 0.007583 0.018848 -0.018350
vertex 0.010054 0.017547 0.011666
endloop
endfacet
facet normal 0.257576 0.966037 0.020672
outer loop
vertex 0.010054 0.017547 0.011666
vertex 0.007583 0.018848 -0.018350
vertex 0.000113 0.020198 0.011666
endloop
endfacet
facet normal 0.085789 0.996038 -0.023429
outer loop
vertex 0.000113 0.020198 0.011666
vertex 0.007583 0.018848 -0.018350
vertex -0.003916 0.019839 -0.018350
endloop
endfacet
facet normal -0.268876 0.962861 0.024572
outer loop
vertex 0.000113 0.020198 0.011666
vertex -0.003916 0.019839 -0.018350
vertex -0.010781 0.017156 0.011666
endloop
endfacet
facet normal -0.998760 0.049728 0.002347
outer loop
vertex -0.019639 0.004035 0.011666
vertex -0.019719 0.003841 -0.018350
vertex -0.019960 -0.002416 0.011666
endloop
endfacet
facet normal -0.999217 -0.036349 -0.015599
outer loop
vertex -0.019960 -0.002416 0.011666
vertex -0.019719 0.003841 -0.018350
vertex -0.019355 -0.006173 -0.018350
endloop
endfacet
facet normal -0.945760 -0.324154 0.021504
outer loop
vertex -0.019960 -0.002416 0.011666
vertex -0.019355 -0.006173 -0.018350
vertex -0.017108 -0.010735 0.011666
endloop
endfacet
facet normal -0.833030 -0.552803 -0.021685
outer loop
vertex -0.017108 -0.010735 0.011666
vertex -0.019355 -0.006173 -0.018350
vertex -0.013584 -0.014868 -0.018350
endloop
endfacet
facet normal -0.716567 -0.697417 0.011902
outer loop
vertex -0.017108 -0.010735 0.011666
vertex -0.013584 -0.014868 -0.018350
vertex -0.011773 -0.016217 0.011666
endloop
endfacet
facet normal 0.674758 -0.144662 -0.723722
outer loop
vertex -0.003952 -0.020282 -0.004818
vertex -0.005346 -0.033722 -0.003432
vertex -0.009151 -0.024813 -0.008760
endloop
endfacet
facet normal 0.697976 -0.144761 -0.701337
outer loop
vertex -0.005346 -0.033722 -0.003432
vertex -0.003952 -0.020282 -0.004818
vertex 0.004915 -0.027745 0.005547
endloop
endfacet
facet normal 0.687828 -0.164626 -0.706959
outer loop
vertex 0.004915 -0.027745 0.005547
vertex -0.003952 -0.020282 -0.004818
vertex 0.004384 -0.019678 0.003152
endloop
endfacet
facet normal 0.695165 -0.131985 -0.706630
outer loop
vertex -0.005346 -0.033722 -0.003432
vertex 0.004915 -0.027745 0.005547
vertex 0.006676 -0.037072 0.009021
endloop
endfacet
facet normal 0.686378 -0.167486 -0.707696
outer loop
vertex 0.006676 -0.037072 0.009021
vertex -0.002750 -0.037730 0.000035
vertex -0.005346 -0.033722 -0.003432
endloop
endfacet
facet normal 0.678896 -0.154580 -0.717778
outer loop
vertex -0.003952 -0.020282 -0.004818
vertex -0.009151 -0.024813 -0.008760
vertex -0.009413 -0.018363 -0.010397
endloop
endfacet
facet normal -0.700287 0.122670 0.703243
outer loop
vertex -0.004260 -0.037275 0.000885
vertex 0.005168 -0.036599 0.010155
vertex -0.007822 -0.031450 -0.003678
endloop
endfacet
facet normal -0.688464 0.162279 0.706883
outer loop
vertex 0.005168 -0.036599 0.010155
vertex 0.004144 -0.028720 0.007349
vertex -0.007822 -0.031450 -0.003678
endloop
endfacet
facet normal -0.687332 0.117088 0.716844
outer loop
vertex -0.007822 -0.031450 -0.003678
vertex 0.004144 -0.028720 0.007349
vertex -0.001984 -0.020740 0.000170
endloop
endfacet
facet normal -0.677963 0.130239 0.723467
outer loop
vertex -0.001984 -0.020740 0.000170
vertex 0.004144 -0.028720 0.007349
vertex 0.003203 -0.020747 0.005032
endloop
endfacet
facet normal -0.699258 0.128481 0.703229
outer loop
vertex -0.007822 -0.031450 -0.003678
vertex -0.001984 -0.020740 0.000170
vertex -0.010647 -0.021645 -0.008278
endloop
endfacet
facet normal -0.698809 0.139335 0.701607
outer loop
vertex -0.010647 -0.021645 -0.008278
vertex -0.001984 -0.020740 0.000170
vertex -0.010679 -0.017302 -0.009173
endloop
endfacet
facet normal -0.280327 -0.838765 -0.466787
outer loop
vertex -0.000828 0.005771 0.011666
vertex 0.001191 0.005662 0.010650
vertex 0.004137 0.004112 0.011666
endloop
endfacet
facet normal -0.531190 -0.667304 0.522056
outer loop
vertex 0.004137 0.004112 0.011666
vertex 0.001191 0.005662 0.010650
vertex 0.005254 0.002428 0.010650
endloop
endfacet
facet normal -0.840445 -0.275843 -0.466437
outer loop
vertex 0.004137 0.004112 0.011666
vertex 0.005254 0.002428 0.010650
vertex 0.005770 -0.000862 0.011666
endloop
endfacet
facet normal -0.942471 -0.045459 0.331184
outer loop
vertex 0.005770 -0.000862 0.011666
vertex 0.005254 0.002428 0.010650
vertex 0.005442 -0.001477 0.010650
endloop
endfacet
facet normal -0.836049 0.545292 -0.060654
outer loop
vertex 0.005770 -0.000862 0.011666
vertex 0.005442 -0.001477 0.010650
vertex 0.003308 -0.004750 0.010650
endloop
endfacet
facet normal -0.839799 0.541603 -0.037456
outer loop
vertex 0.005770 -0.000862 0.011666
vertex 0.003308 -0.004750 0.010650
vertex 0.003284 -0.004716 0.011666
endloop
endfacet
facet normal -0.255598 0.966040 -0.037897
outer loop
vertex 0.003284 -0.004716 0.011666
vertex 0.003308 -0.004750 0.010650
vertex -0.000518 -0.005722 0.011666
endloop
endfacet
facet normal -0.176759 0.952928 0.246344
outer loop
vertex -0.000518 -0.005722 0.011666
vertex 0.003308 -0.004750 0.010650
vertex -0.001165 -0.005579 0.010650
endloop
endfacet
facet normal 0.489200 0.850651 -0.192552
outer loop
vertex -0.000518 -0.005722 0.011666
vertex -0.001165 -0.005579 0.010650
vertex -0.005065 -0.003107 0.011666
endloop
endfacet
facet normal 0.526437 0.848995 -0.045522
outer loop
vertex -0.005065 -0.003107 0.011666
vertex -0.001165 -0.005579 0.010650
vertex -0.004478 -0.003525 0.010650
endloop
endfacet
facet normal 0.875601 0.287518 0.388144
outer loop
vertex -0.005065 -0.003107 0.011666
vertex -0.004478 -0.003525 0.010650
vertex -0.005695 0.000181 0.010650
endloop
endfacet
facet normal 0.862065 0.008471 -0.506727
outer loop
vertex -0.005065 -0.003107 0.011666
vertex -0.005695 0.000181 0.010650
vertex -0.005123 0.002781 0.011666
endloop
endfacet
facet normal 0.804621 -0.361080 0.471388
outer loop
vertex -0.005123 0.002781 0.011666
vertex -0.005695 0.000181 0.010650
vertex -0.003831 0.004334 0.010650
endloop
endfacet
facet normal 0.505335 -0.726001 -0.466432
outer loop
vertex -0.005123 0.002781 0.011666
vertex -0.003831 0.004334 0.010650
vertex -0.000828 0.005771 0.011666
endloop
endfacet
facet normal 0.218126 -0.824618 0.521945
outer loop
vertex -0.000828 0.005771 0.011666
vertex -0.003831 0.004334 0.010650
vertex 0.001191 0.005662 0.010650
endloop
endfacet
facet normal 0.000008 -0.000012 -1.000000
outer loop
vertex -0.001165 -0.005579 0.010650
vertex -0.000177 -0.018633 0.010650
vertex -0.008581 -0.016376 0.010650
endloop
endfacet
facet normal 0.000160 -0.000117 -1.000000
outer loop
vertex -0.001165 -0.005579 0.010650
vertex -0.008581 -0.016376 0.010650
vertex -0.009764 -0.004536 0.010648
endloop
endfacet
facet normal -0.000135 -0.000146 -1.000000
outer loop
vertex -0.009764 -0.004536 0.010648
vertex -0.008581 -0.016376 0.010650
vertex -0.015015 -0.010960 0.010650
endloop
endfacet
facet normal -0.000213 -0.000083 -1.000000
outer loop
vertex -0.009764 -0.004536 0.010648
vertex -0.015015 -0.010960 0.010650
vertex -0.018478 -0.002037 0.010650
endloop
endfacet
facet normal -0.000159 0.000105 -1.000000
outer loop
vertex -0.009764 -0.004536 0.010648
vertex -0.018478 -0.002037 0.010650
vertex -0.010453 -0.001983 0.010649
endloop
endfacet
facet normal -0.000159 0.000012 -1.000000
outer loop
vertex -0.010453 -0.001983 0.010649
vertex -0.018478 -0.002037 0.010650
vertex -0.017717 0.005058 0.010650
endloop
endfacet
facet normal -0.000023 0.000042 -1.000000
outer loop
vertex -0.014734 0.011379 0.010650
vertex -0.003831 0.004334 0.010650
vertex -0.017717 0.005058 0.010650
endloop
endfacet
facet normal -0.000017 0.000158 -1.000000
outer loop
vertex -0.017717 0.005058 0.010650
vertex -0.003831 0.004334 0.010650
vertex -0.010453 -0.001983 0.010649
endloop
endfacet
facet normal -0.000029 0.000034 -1.000000
outer loop
vertex -0.003831 0.004334 0.010650
vertex -0.014734 0.011379 0.010650
vertex -0.005815 0.017778 0.010650
endloop
endfacet
facet normal -0.000007 0.000037 -1.000000
outer loop
vertex -0.003831 0.004334 0.010650
vertex -0.005815 0.017778 0.010650
vertex 0.001191 0.005662 0.010650
endloop
endfacet
facet normal -0.000012 0.000035 -1.000000
outer loop
vertex 0.001191 0.005662 0.010650
vertex -0.005815 0.017778 0.010650
vertex 0.004992 0.017910 0.010650
endloop
endfacet
facet normal 0.000010 0.000028 -1.000000
outer loop
vertex 0.001191 0.005662 0.010650
vertex 0.004992 0.017910 0.010650
vertex 0.011472 0.014447 0.010650
endloop
endfacet
facet normal -0.000126 0.000188 -1.000000
outer loop
vertex 0.001191 0.005662 0.010650
vertex 0.011472 0.014447 0.010650
vertex 0.007657 0.003960 0.010649
endloop
endfacet
facet normal 0.000669 -0.000101 -1.000000
outer loop
vertex 0.007657 0.003960 0.010649
vertex 0.011472 0.014447 0.010650
vertex 0.009718 0.004422 0.010650
endloop
endfacet
facet normal 0.000036 0.000009 -1.000000
outer loop
vertex 0.009718 0.004422 0.010650
vertex 0.011472 0.014447 0.010650
vertex 0.016748 0.008408 0.010650
endloop
endfacet
facet normal -0.000278 0.000565 -1.000000
outer loop
vertex 0.009718 0.004422 0.010650
vertex 0.016748 0.008408 0.010650
vertex 0.010725 0.002567 0.010649
endloop
endfacet
facet normal 0.000204 0.000067 -1.000000
outer loop
vertex 0.010725 0.002567 0.010649
vertex 0.016748 0.008408 0.010650
vertex 0.018374 0.001015 0.010650
endloop
endfacet
facet normal 0.000185 -0.000027 -1.000000
outer loop
vertex 0.010725 0.002567 0.010649
vertex 0.018374 0.001015 0.010650
vertex 0.017931 -0.004897 0.010650
endloop
endfacet
facet normal -0.000148 -0.000567 -1.000000
outer loop
vertex 0.017931 -0.004897 0.010650
vertex 0.005442 -0.001477 0.010650
vertex 0.008346 0.001406 0.010648
endloop
endfacet
facet normal 0.000243 0.000029 -1.000000
outer loop
vertex 0.017931 -0.004897 0.010650
vertex 0.008346 0.001406 0.010648
vertex 0.010725 0.002567 0.010649
endloop
endfacet
facet normal 0.000028 0.000079 -1.000000
outer loop
vertex 0.005442 -0.001477 0.010650
vertex 0.017931 -0.004897 0.010650
vertex 0.003308 -0.004750 0.010650
endloop
endfacet
facet normal 0.000028 -0.000013 -1.000000
outer loop
vertex 0.003308 -0.004750 0.010650
vertex 0.017931 -0.004897 0.010650
vertex 0.013179 -0.013115 0.010650
endloop
endfacet
facet normal 0.000018 -0.000025 -1.000000
outer loop
vertex 0.003308 -0.004750 0.010650
vertex 0.013179 -0.013115 0.010650
vertex 0.006881 -0.017119 0.010650
endloop
endfacet
facet normal 0.000003 -0.000029 -1.000000
outer loop
vertex 0.003308 -0.004750 0.010650
vertex 0.006881 -0.017119 0.010650
vertex -0.000177 -0.018633 0.010650
endloop
endfacet
facet normal -0.000048 -0.000017 -1.000000
outer loop
vertex 0.003308 -0.004750 0.010650
vertex -0.000177 -0.018633 0.010650
vertex -0.001165 -0.005579 0.010650
endloop
endfacet
facet normal 0.000779 -0.001219 -0.999999
outer loop
vertex -0.010453 -0.001983 0.010649
vertex -0.005695 0.000181 0.010650
vertex -0.008392 -0.001519 0.010650
endloop
endfacet
facet normal -0.000423 0.000684 -1.000000
outer loop
vertex -0.008392 -0.001519 0.010650
vertex -0.005695 0.000181 0.010650
vertex -0.007385 -0.003377 0.010648
endloop
endfacet
facet normal 0.000612 0.000193 -1.000000
outer loop
vertex -0.007385 -0.003377 0.010648
vertex -0.005695 0.000181 0.010650
vertex -0.004478 -0.003525 0.010650
endloop
endfacet
facet normal 0.000534 -0.001337 -0.999999
outer loop
vertex -0.007385 -0.003377 0.010648
vertex -0.004478 -0.003525 0.010650
vertex -0.009764 -0.004536 0.010648
endloop
endfacet
facet normal 0.000215 0.000333 -1.000000
outer loop
vertex -0.009764 -0.004536 0.010648
vertex -0.004478 -0.003525 0.010650
vertex -0.001165 -0.005579 0.010650
endloop
endfacet
facet normal -0.000248 -0.000277 -1.000000
outer loop
vertex 0.001191 0.005662 0.010650
vertex 0.007657 0.003960 0.010649
vertex 0.005254 0.002428 0.010650
endloop
endfacet
facet normal -0.000492 0.000107 -1.000000
outer loop
vertex 0.005254 0.002428 0.010650
vertex 0.007657 0.003960 0.010649
vertex 0.008346 0.001406 0.010648
endloop
endfacet
facet normal -0.000574 -0.000138 -1.000000
outer loop
vertex 0.005254 0.002428 0.010650
vertex 0.008346 0.001406 0.010648
vertex 0.005442 -0.001477 0.010650
endloop
endfacet
facet normal 0.000305 -0.000180 -1.000000
outer loop
vertex -0.003831 0.004334 0.010650
vertex -0.005695 0.000181 0.010650
vertex -0.010453 -0.001983 0.010649
endloop
endfacet
facet normal -0.000010 -0.000010 1.000000
outer loop
vertex 0.010054 0.017547 0.011666
vertex 0.000113 0.020198 0.011666
vertex -0.000828 0.005771 0.011666
endloop
endfacet
facet normal 0.000000 -0.000010 1.000000
outer loop
vertex -0.000828 0.005771 0.011666
vertex 0.000113 0.020198 0.011666
vertex -0.010781 0.017156 0.011666
endloop
endfacet
facet normal 0.000004 -0.000007 1.000000
outer loop
vertex -0.000828 0.005771 0.011666
vertex -0.010781 0.017156 0.011666
vertex -0.005123 0.002781 0.011666
endloop
endfacet
facet normal 0.000010 -0.000004 1.000000
outer loop
vertex -0.005123 0.002781 0.011666
vertex -0.010781 0.017156 0.011666
vertex -0.017616 0.009721 0.011666
endloop
endfacet
facet normal 0.000024 0.000021 1.000000
outer loop
vertex -0.005123 0.002781 0.011666
vertex -0.017616 0.009721 0.011666
vertex -0.009407 -0.001350 0.011666
endloop
endfacet
facet normal 0.000011 0.000011 1.000000
outer loop
vertex -0.009407 -0.001350 0.011666
vertex -0.017616 0.009721 0.011666
vertex -0.019639 0.004035 0.011666
endloop
endfacet
facet normal -0.000233 -0.000451 1.000000
outer loop
vertex -0.009407 -0.001350 0.011666
vertex -0.019639 0.004035 0.011666
vertex -0.010810 -0.003111 0.011665
endloop
endfacet
facet normal 0.000116 -0.000020 1.000000
outer loop
vertex -0.010810 -0.003111 0.011665
vertex -0.019639 0.004035 0.011666
vertex -0.019960 -0.002416 0.011666
endloop
endfacet
facet normal 0.000121 0.000042 1.000000
outer loop
vertex -0.010810 -0.003111 0.011665
vertex -0.019960 -0.002416 0.011666
vertex -0.017108 -0.010735 0.011666
endloop
endfacet
facet normal 0.000103 0.000057 1.000000
outer loop
vertex -0.010810 -0.003111 0.011665
vertex -0.017108 -0.010735 0.011666
vertex -0.008664 -0.004692 0.011665
endloop
endfacet
facet normal 0.000083 0.000083 1.000000
outer loop
vertex -0.008664 -0.004692 0.011665
vertex -0.017108 -0.010735 0.011666
vertex -0.011773 -0.016217 0.011666
endloop
endfacet
facet normal 0.000049 0.000093 1.000000
outer loop
vertex -0.008664 -0.004692 0.011665
vertex -0.011773 -0.016217 0.011666
vertex -0.006193 -0.019129 0.011666
endloop
endfacet
facet normal -0.000213 0.000048 1.000000
outer loop
vertex -0.008664 -0.004692 0.011665
vertex -0.006193 -0.019129 0.011666
vertex -0.005065 -0.003107 0.011666
endloop
endfacet
facet normal -0.000071 0.000038 1.000000
outer loop
vertex -0.005065 -0.003107 0.011666
vertex -0.006193 -0.019129 0.011666
vertex -0.000518 -0.005722 0.011666
endloop
endfacet
facet normal -0.000004 0.000010 1.000000
outer loop
vertex -0.000518 -0.005722 0.011666
vertex -0.006193 -0.019129 0.011666
vertex 0.000061 -0.020045 0.011666
endloop
endfacet
facet normal 0.000031 0.000011 1.000000
outer loop
vertex -0.000518 -0.005722 0.011666
vertex 0.000061 -0.020045 0.011666
vertex 0.004649 -0.019480 0.011666
endloop
endfacet
facet normal -0.000004 -0.000002 1.000000
outer loop
vertex -0.000518 -0.005722 0.011666
vertex 0.004649 -0.019480 0.011666
vertex 0.003284 -0.004716 0.011666
endloop
endfacet
facet normal -0.000017 -0.000003 1.000000
outer loop
vertex 0.003284 -0.004716 0.011666
vertex 0.004649 -0.019480 0.011666
vertex 0.010688 -0.017033 0.011666
endloop
endfacet
facet normal -0.000004 0.000004 1.000000
outer loop
vertex 0.003284 -0.004716 0.011666
vertex 0.010688 -0.017033 0.011666
vertex 0.016207 -0.011904 0.011666
endloop
endfacet
facet normal 0.000005 0.000020 1.000000
outer loop
vertex 0.003284 -0.004716 0.011666
vertex 0.016207 -0.011904 0.011666
vertex 0.005770 -0.000862 0.011666
endloop
endfacet
facet normal -0.000013 0.000003 1.000000
outer loop
vertex 0.005770 -0.000862 0.011666
vertex 0.016207 -0.011904 0.011666
vertex 0.019814 -0.003903 0.011666
endloop
endfacet
facet normal 0.000065 0.000365 1.000000
outer loop
vertex 0.005770 -0.000862 0.011666
vertex 0.019814 -0.003903 0.011666
vertex 0.009446 0.001251 0.011665
endloop
endfacet
facet normal -0.000338 -0.000448 1.000000
outer loop
vertex 0.009446 0.001251 0.011665
vertex 0.019814 -0.003903 0.011666
vertex 0.010681 0.002848 0.011666
endloop
endfacet
facet normal -0.000007 0.000001 1.000000
outer loop
vertex 0.010681 0.002848 0.011666
vertex 0.019814 -0.003903 0.011666
vertex 0.019332 0.005873 0.011666
endloop
endfacet
facet normal -0.000070 0.000181 1.000000
outer loop
vertex 0.010681 0.002848 0.011666
vertex 0.019332 0.005873 0.011666
vertex 0.009427 0.004742 0.011666
endloop
endfacet
facet normal -0.000050 0.000001 1.000000
outer loop
vertex 0.009427 0.004742 0.011666
vertex 0.019332 0.005873 0.011666
vertex 0.015504 0.012695 0.011666
endloop
endfacet
facet normal 0.000009 -0.000044 1.000000
outer loop
vertex 0.009427 0.004742 0.011666
vertex 0.015504 0.012695 0.011666
vertex 0.010054 0.017547 0.011666
endloop
endfacet
facet normal 0.000066 -0.000047 1.000000
outer loop
vertex 0.009427 0.004742 0.011666
vertex 0.010054 0.017547 0.011666
vertex 0.004137 0.004112 0.011666
endloop
endfacet
facet normal -0.000003 -0.000016 1.000000
outer loop
vertex 0.004137 0.004112 0.011666
vertex 0.010054 0.017547 0.011666
vertex -0.000828 0.005771 0.011666
endloop
endfacet
facet normal 0.000119 -0.000501 1.000000
outer loop
vertex 0.009427 0.004742 0.011666
vertex 0.004137 0.004112 0.011666
vertex 0.007301 0.002832 0.011665
endloop
endfacet
facet normal 0.000371 0.000119 1.000000
outer loop
vertex 0.007301 0.002832 0.011665
vertex 0.004137 0.004112 0.011666
vertex 0.005770 -0.000862 0.011666
endloop
endfacet
facet normal 0.000155 0.000209 1.000000
outer loop
vertex 0.007301 0.002832 0.011665
vertex 0.005770 -0.000862 0.011666
vertex 0.009446 0.001251 0.011665
endloop
endfacet
facet normal -0.000187 -0.000010 1.000000
outer loop
vertex -0.008664 -0.004692 0.011665
vertex -0.005065 -0.003107 0.011666
vertex -0.007410 -0.002345 0.011665
endloop
endfacet
facet normal -0.000206 -0.000065 1.000000
outer loop
vertex -0.007410 -0.002345 0.011665
vertex -0.005065 -0.003107 0.011666
vertex -0.005123 0.002781 0.011666
endloop
endfacet
facet normal 0.000344 -0.000309 1.000000
outer loop
vertex -0.007410 -0.002345 0.011665
vertex -0.005123 0.002781 0.011666
vertex -0.009407 -0.001350 0.011666
endloop
endfacet
facet normal 0.204934 -0.915437 0.346377
outer loop
vertex 0.009718 0.004422 0.010650
vertex 0.009427 0.004742 0.011666
vertex 0.007657 0.003960 0.010649
endloop
endfacet
facet normal 0.575075 -0.640318 -0.509197
outer loop
vertex 0.007657 0.003960 0.010649
vertex 0.009427 0.004742 0.011666
vertex 0.007301 0.002832 0.011665
endloop
endfacet
facet normal 0.817738 0.220339 0.531748
outer loop
vertex 0.007657 0.003960 0.010649
vertex 0.007301 0.002832 0.011665
vertex 0.008346 0.001406 0.010648
endloop
endfacet
facet normal 0.526637 0.714513 -0.460569
outer loop
vertex 0.008346 0.001406 0.010648
vertex 0.007301 0.002832 0.011665
vertex 0.009446 0.001251 0.011665
endloop
endfacet
facet normal -0.374248 0.766629 0.521746
outer loop
vertex 0.008346 0.001406 0.010648
vertex 0.009446 0.001251 0.011665
vertex 0.010725 0.002567 0.010649
endloop
endfacet
facet normal -0.775177 0.599512 -0.199211
outer loop
vertex 0.010725 0.002567 0.010649
vertex 0.009446 0.001251 0.011665
vertex 0.010681 0.002848 0.011666
endloop
endfacet
facet normal -0.828449 -0.548075 0.115260
outer loop
vertex 0.010725 0.002567 0.010649
vertex 0.010681 0.002848 0.011666
vertex 0.009427 0.004742 0.011666
endloop
endfacet
facet normal -0.874507 -0.474340 -0.101181
outer loop
vertex 0.010725 0.002567 0.010649
vertex 0.009427 0.004742 0.011666
vertex 0.009718 0.004422 0.010650
endloop
endfacet
facet normal -0.427546 -0.858231 -0.283978
outer loop
vertex -0.007410 -0.002345 0.011665
vertex -0.009407 -0.001350 0.011666
vertex -0.008392 -0.001519 0.010650
endloop
endfacet
facet normal 0.204738 -0.911607 0.356449
outer loop
vertex -0.008392 -0.001519 0.010650
vertex -0.009407 -0.001350 0.011666
vertex -0.010453 -0.001983 0.010649
endloop
endfacet
facet normal 0.722091 -0.574914 -0.384784
outer loop
vertex -0.010453 -0.001983 0.010649
vertex -0.009407 -0.001350 0.011666
vertex -0.010810 -0.003111 0.011665
endloop
endfacet
facet normal 0.817688 0.220535 0.531743
outer loop
vertex -0.010453 -0.001983 0.010649
vertex -0.010810 -0.003111 0.011665
vertex -0.009764 -0.004536 0.010648
endloop
endfacet
facet normal 0.526772 0.714563 -0.460339
outer loop
vertex -0.009764 -0.004536 0.010648
vertex -0.010810 -0.003111 0.011665
vertex -0.008664 -0.004692 0.011665
endloop
endfacet
facet normal -0.373667 0.766653 0.522127
outer loop
vertex -0.009764 -0.004536 0.010648
vertex -0.008664 -0.004692 0.011665
vertex -0.007385 -0.003377 0.010648
endloop
endfacet
facet normal -0.789045 0.421566 -0.446867
outer loop
vertex -0.007385 -0.003377 0.010648
vertex -0.008664 -0.004692 0.011665
vertex -0.007410 -0.002345 0.011665
endloop
endfacet
facet normal -0.797685 -0.432806 0.419973
outer loop
vertex -0.007385 -0.003377 0.010648
vertex -0.007410 -0.002345 0.011665
vertex -0.008392 -0.001519 0.010650
endloop
endfacet
facet normal -0.000069 0.000012 -1.000000
outer loop
vertex 0.017650 -0.009828 -0.018350
vertex 0.017266 -0.008172 -0.018350
vertex 0.019902 -0.002449 -0.018350
endloop
endfacet
facet normal 0.000007 -0.000021 -1.000000
outer loop
vertex 0.019902 -0.002449 -0.018350
vertex 0.017266 -0.008172 -0.018350
vertex 0.018966 0.000259 -0.018350
endloop
endfacet
facet normal 0.000107 0.000014 -1.000000
outer loop
vertex 0.019902 -0.002449 -0.018350
vertex 0.018966 0.000259 -0.018350
vertex 0.019790 0.003545 -0.018350
endloop
endfacet
facet normal 0.000028 0.000033 -1.000000
outer loop
vertex 0.019790 0.003545 -0.018350
vertex 0.018966 0.000259 -0.018350
vertex 0.017670 0.007630 -0.018350
endloop
endfacet
facet normal -0.000172 -0.000073 -1.000000
outer loop
vertex 0.019790 0.003545 -0.018350
vertex 0.017670 0.007630 -0.018350
vertex 0.016469 0.011704 -0.018350
endloop
endfacet
facet normal -0.000025 -0.000028 -1.000000
outer loop
vertex 0.016469 0.011704 -0.018350
vertex 0.017670 0.007630 -0.018350
vertex 0.010670 0.015843 -0.018350
endloop
endfacet
facet normal -0.000041 -0.000053 -1.000000
outer loop
vertex 0.016469 0.011704 -0.018350
vertex 0.010670 0.015843 -0.018350
vertex 0.007583 0.018848 -0.018350
endloop
endfacet
facet normal -0.000009 -0.000018 -1.000000
outer loop
vertex 0.007583 0.018848 -0.018350
vertex 0.010670 0.015843 -0.018350
vertex 0.001484 0.019044 -0.018350
endloop
endfacet
facet normal -0.000016 -0.000252 -1.000000
outer loop
vertex 0.007583 0.018848 -0.018350
vertex 0.001484 0.019044 -0.018350
vertex -0.003916 0.019839 -0.018350
endloop
endfacet
facet normal 0.000016 -0.000033 -1.000000
outer loop
vertex -0.003916 0.019839 -0.018350
vertex 0.001484 0.019044 -0.018350
vertex -0.007026 0.017659 -0.018350
endloop
endfacet
facet normal 0.000005 -0.000015 -1.000000
outer loop
vertex -0.003916 0.019839 -0.018350
vertex -0.007026 0.017659 -0.018350
vertex -0.010439 0.017117 -0.018350
endloop
endfacet
facet normal 0.000002 -0.000003 -1.000000
outer loop
vertex -0.010439 0.017117 -0.018350
vertex -0.007026 0.017659 -0.018350
vertex -0.012985 0.013903 -0.018350
endloop
endfacet
facet normal -0.000018 0.000015 -1.000000
outer loop
vertex -0.010439 0.017117 -0.018350
vertex -0.012985 0.013903 -0.018350
vertex -0.016337 0.011859 -0.018350
endloop
endfacet
facet normal -0.000005 -0.000009 -1.000000
outer loop
vertex -0.016337 0.011859 -0.018350
vertex -0.012985 0.013903 -0.018350
vertex -0.017329 0.007800 -0.018350
endloop
endfacet
facet normal 0.000045 -0.000022 -1.000000
outer loop
vertex -0.016337 0.011859 -0.018350
vertex -0.017329 0.007800 -0.018350
vertex -0.019719 0.003841 -0.018350
endloop
endfacet
facet normal 0.000022 -0.000005 -1.000000
outer loop
vertex -0.019719 0.003841 -0.018350
vertex -0.017329 0.007800 -0.018350
vertex -0.019090 -0.000557 -0.018350
endloop
endfacet
facet normal 0.000065 0.000003 -1.000000
outer loop
vertex -0.019719 0.003841 -0.018350
vertex -0.019090 -0.000557 -0.018350
vertex -0.019355 -0.006173 -0.018350
endloop
endfacet
facet normal 0.000021 0.000006 -1.000000
outer loop
vertex -0.019355 -0.006173 -0.018350
vertex -0.019090 -0.000557 -0.018350
vertex -0.016332 -0.009901 -0.018350
endloop
endfacet
facet normal 0.000152 0.000113 -1.000000
outer loop
vertex -0.019355 -0.006173 -0.018350
vertex -0.016332 -0.009901 -0.018350
vertex -0.013584 -0.014868 -0.018350
endloop
endfacet
facet normal 0.000023 0.000041 -1.000000
outer loop
vertex -0.013584 -0.014868 -0.018350
vertex -0.016332 -0.009901 -0.018350
vertex -0.011406 -0.015123 -0.018350
endloop
endfacet
facet normal 0.000020 0.000009 -1.000000
outer loop
vertex -0.013584 -0.014868 -0.018350
vertex -0.011406 -0.015123 -0.018350
vertex -0.006779 -0.019050 -0.018350
endloop
endfacet
facet normal -0.000034 -0.000052 -1.000000
outer loop
vertex -0.006779 -0.019050 -0.018350
vertex -0.011406 -0.015123 -0.018350
vertex -0.007316 -0.017487 -0.018350
endloop
endfacet
facet normal 0.000002 -0.000040 -1.000000
outer loop
vertex -0.006779 -0.019050 -0.018350
vertex -0.007316 -0.017487 -0.018350
vertex -0.001224 -0.018964 -0.018350
endloop
endfacet
facet normal 0.000001 -0.000022 -1.000000
outer loop
vertex -0.006779 -0.019050 -0.018350
vertex -0.001224 -0.018964 -0.018350
vertex 0.002308 -0.019980 -0.018350
endloop
endfacet
facet normal 0.000003 -0.000013 -1.000000
outer loop
vertex 0.002308 -0.019980 -0.018350
vertex -0.001224 -0.018964 -0.018350
vertex 0.006812 -0.017828 -0.018350
endloop
endfacet
facet normal -0.000010 0.000014 -1.000000
outer loop
vertex 0.002308 -0.019980 -0.018350
vertex 0.006812 -0.017828 -0.018350
vertex 0.010469 -0.017312 -0.018350
endloop
endfacet
facet normal -0.000010 0.000014 -1.000000
outer loop
vertex 0.010469 -0.017312 -0.018350
vertex 0.006812 -0.017828 -0.018350
vertex 0.012862 -0.013911 -0.018350
endloop
endfacet
facet normal -0.000016 0.000019 -1.000000
outer loop
vertex 0.010469 -0.017312 -0.018350
vertex 0.012862 -0.013911 -0.018350
vertex 0.017650 -0.009828 -0.018350
endloop
endfacet
facet normal -0.000020 0.000022 -1.000000
outer loop
vertex 0.017650 -0.009828 -0.018350
vertex 0.012862 -0.013911 -0.018350
vertex 0.017266 -0.008172 -0.018350
endloop
endfacet
facet normal 0.611113 -0.222417 0.759653
outer loop
vertex 0.003203 -0.020747 0.005032
vertex 0.004286 -0.020075 0.004357
vertex 0.002959 -0.019899 0.005476
endloop
endfacet
facet normal 0.300130 -0.821293 0.485180
outer loop
vertex 0.002959 -0.019899 0.005476
vertex 0.004286 -0.020075 0.004357
vertex 0.004158 -0.019621 0.005205
endloop
endfacet
facet normal 0.991023 0.079668 0.107359
outer loop
vertex 0.004384 -0.019678 0.003152
vertex 0.004158 -0.019621 0.005205
vertex 0.004286 -0.020075 0.004357
endloop
endfacet
facet normal -0.554943 -0.585284 0.591170
outer loop
vertex -0.001984 -0.020740 0.000170
vertex 0.003203 -0.020747 0.005032
vertex -0.001533 -0.020111 0.001216
endloop
endfacet
facet normal -0.582474 -0.502150 0.639194
outer loop
vertex -0.001533 -0.020111 0.001216
vertex 0.003203 -0.020747 0.005032
vertex 0.002959 -0.019899 0.005476
endloop
endfacet
facet normal -0.706436 -0.429258 0.562748
outer loop
vertex -0.001984 -0.020740 0.000170
vertex -0.001533 -0.020111 0.001216
vertex -0.007033 -0.018929 -0.004786
endloop
endfacet
facet normal 0.389583 0.259053 0.883808
outer loop
vertex 0.004636 -0.026280 0.006022
vertex 0.004286 -0.020075 0.004357
vertex 0.003203 -0.020747 0.005032
endloop
endfacet
facet normal 0.091446 0.344642 0.934269
outer loop
vertex 0.006185 -0.036653 0.010075
vertex 0.004144 -0.028720 0.007349
vertex 0.005168 -0.036599 0.010155
endloop
endfacet
facet normal 0.594590 0.288316 0.750557
outer loop
vertex 0.004144 -0.028720 0.007349
vertex 0.004636 -0.026280 0.006022
vertex 0.003203 -0.020747 0.005032
endloop
endfacet
facet normal 0.988629 0.098718 0.113433
outer loop
vertex 0.004915 -0.027745 0.005547
vertex 0.004384 -0.019678 0.003152
vertex 0.004286 -0.020075 0.004357
endloop
endfacet
facet normal 0.969015 0.113533 0.219362
outer loop
vertex 0.004915 -0.027745 0.005547
vertex 0.004286 -0.020075 0.004357
vertex 0.004636 -0.026280 0.006022
endloop
endfacet
facet normal 0.907049 0.286277 0.308719
outer loop
vertex 0.006676 -0.037072 0.009021
vertex 0.004915 -0.027745 0.005547
vertex 0.006185 -0.036653 0.010075
endloop
endfacet
facet normal 0.759794 0.377465 0.529371
outer loop
vertex 0.006185 -0.036653 0.010075
vertex 0.004915 -0.027745 0.005547
vertex 0.004144 -0.028720 0.007349
endloop
endfacet
facet normal 0.910572 0.040106 0.411399
outer loop
vertex 0.004144 -0.028720 0.007349
vertex 0.004915 -0.027745 0.005547
vertex 0.004636 -0.026280 0.006022
endloop
endfacet
facet normal -0.126747 -0.970296 0.206061
outer loop
vertex -0.003952 -0.020282 -0.004818
vertex 0.000397 -0.020105 -0.001309
vertex 0.004384 -0.019678 0.003152
endloop
endfacet
facet normal 0.027379 -0.929591 -0.367574
outer loop
vertex -0.001984 -0.020740 0.000170
vertex -0.007033 -0.018929 -0.004786
vertex -0.010679 -0.017302 -0.009173
endloop
endfacet
facet normal -0.759096 -0.460489 0.460134
outer loop
vertex -0.010679 -0.017302 -0.009173
vertex -0.007033 -0.018929 -0.004786
vertex -0.010992 -0.016736 -0.009123
endloop
endfacet
facet normal 0.447644 -0.728953 -0.517921
outer loop
vertex -0.005120 -0.019412 -0.007053
vertex 0.000397 -0.020105 -0.001309
vertex -0.003952 -0.020282 -0.004818
endloop
endfacet
facet normal 0.039849 -0.923841 -0.380697
outer loop
vertex -0.008831 -0.018018 -0.010823
vertex -0.005120 -0.019412 -0.007053
vertex -0.003952 -0.020282 -0.004818
endloop
endfacet
facet normal 0.172083 -0.867422 -0.466869
outer loop
vertex -0.008831 -0.018018 -0.010823
vertex -0.003952 -0.020282 -0.004818
vertex -0.009413 -0.018363 -0.010397
endloop
endfacet
facet normal -0.841553 -0.436102 -0.318753
outer loop
vertex -0.010209 -0.017334 -0.010372
vertex -0.010679 -0.017302 -0.009173
vertex -0.010992 -0.016736 -0.009123
endloop
endfacet
facet normal -0.432601 -0.313538 -0.845310
outer loop
vertex -0.010209 -0.017334 -0.010372
vertex -0.008831 -0.018018 -0.010823
vertex -0.009413 -0.018363 -0.010397
endloop
endfacet
facet normal -0.930780 0.004795 -0.365549
outer loop
vertex -0.010497 -0.020334 -0.009678
vertex -0.010679 -0.017302 -0.009173
vertex -0.010209 -0.017334 -0.010372
endloop
endfacet
facet normal -0.989477 -0.036279 -0.140071
outer loop
vertex -0.010679 -0.017302 -0.009173
vertex -0.010497 -0.020334 -0.009678
vertex -0.010647 -0.021645 -0.008278
endloop
endfacet
facet normal -0.853349 -0.001237 0.521339
outer loop
vertex -0.010647 -0.021645 -0.008278
vertex -0.009583 -0.027395 -0.006550
vertex -0.007822 -0.031450 -0.003678
endloop
endfacet
facet normal -0.791025 -0.595060 -0.142071
outer loop
vertex -0.004260 -0.037275 0.000885
vertex -0.007822 -0.031450 -0.003678
vertex -0.006319 -0.033439 -0.003719
endloop
endfacet
facet normal -0.961238 -0.142171 -0.236238
outer loop
vertex -0.010497 -0.020334 -0.009678
vertex -0.010267 -0.023654 -0.008616
vertex -0.010647 -0.021645 -0.008278
endloop
endfacet
facet normal -0.982798 -0.184482 -0.008655
outer loop
vertex -0.010647 -0.021645 -0.008278
vertex -0.010267 -0.023654 -0.008616
vertex -0.009583 -0.027395 -0.006550
endloop
endfacet
facet normal -0.755260 -0.564145 -0.333651
outer loop
vertex -0.009583 -0.027395 -0.006550
vertex -0.006319 -0.033439 -0.003719
vertex -0.007822 -0.031450 -0.003678
endloop
endfacet
facet normal -0.723491 -0.653899 -0.221306
outer loop
vertex -0.004260 -0.037275 0.000885
vertex -0.006319 -0.033439 -0.003719
vertex -0.003624 -0.037898 0.000649
endloop
endfacet
facet normal 0.062356 -0.249536 0.966356
outer loop
vertex 0.005890 -0.037539 0.009866
vertex 0.006185 -0.036653 0.010075
vertex 0.005168 -0.036599 0.010155
endloop
endfacet
facet normal 0.772194 -0.378468 0.510371
outer loop
vertex 0.006185 -0.036653 0.010075
vertex 0.005890 -0.037539 0.009866
vertex 0.006676 -0.037072 0.009021
endloop
endfacet
facet normal -0.277271 -0.191151 -0.941585
outer loop
vertex -0.010209 -0.017334 -0.010372
vertex -0.009413 -0.018363 -0.010397
vertex -0.010497 -0.020334 -0.009678
endloop
endfacet
facet normal -0.423980 -0.302457 -0.853675
outer loop
vertex -0.010267 -0.023654 -0.008616
vertex -0.010497 -0.020334 -0.009678
vertex -0.009151 -0.024813 -0.008760
endloop
endfacet
facet normal -0.577053 -0.473135 -0.665698
outer loop
vertex -0.010267 -0.023654 -0.008616
vertex -0.009151 -0.024813 -0.008760
vertex -0.009583 -0.027395 -0.006550
endloop
endfacet
facet normal -0.398938 -0.556764 -0.728602
outer loop
vertex -0.009583 -0.027395 -0.006550
vertex -0.009151 -0.024813 -0.008760
vertex -0.006319 -0.033439 -0.003719
endloop
endfacet
facet normal 0.041204 -0.638194 -0.768772
outer loop
vertex -0.005346 -0.033722 -0.003432
vertex -0.002750 -0.037730 0.000035
vertex -0.006319 -0.033439 -0.003719
endloop
endfacet
facet normal -0.275253 -0.752405 -0.598434
outer loop
vertex -0.006319 -0.033439 -0.003719
vertex -0.002750 -0.037730 0.000035
vertex -0.003624 -0.037898 0.000649
endloop
endfacet
facet normal -0.178911 -0.248952 -0.951848
outer loop
vertex -0.009151 -0.024813 -0.008760
vertex -0.010497 -0.020334 -0.009678
vertex -0.009413 -0.018363 -0.010397
endloop
endfacet
facet normal 0.120859 -0.470987 -0.873822
outer loop
vertex -0.006319 -0.033439 -0.003719
vertex -0.009151 -0.024813 -0.008760
vertex -0.005346 -0.033722 -0.003432
endloop
endfacet
facet normal -0.337157 -0.827489 0.448984
outer loop
vertex 0.001187 -0.038129 0.005246
vertex 0.005890 -0.037539 0.009866
vertex 0.000765 -0.037643 0.005826
endloop
endfacet
facet normal -0.496987 -0.580136 0.645326
outer loop
vertex 0.000765 -0.037643 0.005826
vertex 0.005890 -0.037539 0.009866
vertex 0.005168 -0.036599 0.010155
endloop
endfacet
facet normal -0.701103 -0.000409 0.713060
outer loop
vertex 0.000765 -0.037643 0.005826
vertex 0.005168 -0.036599 0.010155
vertex -0.004260 -0.037275 0.000885
endloop
endfacet
facet normal -0.519392 -0.710057 0.475447
outer loop
vertex 0.000765 -0.037643 0.005826
vertex -0.004260 -0.037275 0.000885
vertex -0.003624 -0.037898 0.000649
endloop
endfacet
facet normal -0.412524 -0.823046 0.390410
outer loop
vertex 0.000765 -0.037643 0.005826
vertex -0.003624 -0.037898 0.000649
vertex 0.001187 -0.038129 0.005246
endloop
endfacet
facet normal 0.334826 -0.921436 -0.197098
outer loop
vertex 0.001644 -0.037937 0.004517
vertex 0.006676 -0.037072 0.009021
vertex 0.005890 -0.037539 0.009866
endloop
endfacet
facet normal 0.229658 -0.967012 -0.110202
outer loop
vertex 0.001644 -0.037937 0.004517
vertex 0.005890 -0.037539 0.009866
vertex 0.001187 -0.038129 0.005246
endloop
endfacet
facet normal 0.093564 -0.986093 -0.137357
outer loop
vertex -0.003624 -0.037898 0.000649
vertex -0.002750 -0.037730 0.000035
vertex 0.001644 -0.037937 0.004517
endloop
endfacet
facet normal 0.124057 -0.976039 -0.178767
outer loop
vertex -0.003624 -0.037898 0.000649
vertex 0.001644 -0.037937 0.004517
vertex 0.001187 -0.038129 0.005246
endloop
endfacet
facet normal 0.653036 -0.375837 -0.657488
outer loop
vertex -0.002750 -0.037730 0.000035
vertex 0.006676 -0.037072 0.009021
vertex 0.001644 -0.037937 0.004517
endloop
endfacet
facet normal -0.505708 -0.416148 0.755699
outer loop
vertex -0.019565 0.007600 0.005032
vertex -0.019526 0.006329 0.004358
vertex -0.018701 0.007381 0.005490
endloop
endfacet
facet normal -0.692563 -0.201661 0.692596
outer loop
vertex -0.018701 0.007381 0.005490
vertex -0.019526 0.006329 0.004358
vertex -0.019324 0.005415 0.004294
endloop
endfacet
facet normal -0.972029 -0.207648 -0.109738
outer loop
vertex -0.019526 0.006329 0.004358
vertex -0.019403 0.006419 0.003097
vertex -0.019324 0.005415 0.004294
endloop
endfacet
facet normal -0.411338 0.782090 0.468120
outer loop
vertex -0.016546 0.012352 -0.000256
vertex -0.019565 0.007600 0.005032
vertex -0.016993 0.010782 0.001975
endloop
endfacet
facet normal -0.154088 0.746373 0.647444
outer loop
vertex -0.016993 0.010782 0.001975
vertex -0.019565 0.007600 0.005032
vertex -0.018701 0.007381 0.005490
endloop
endfacet
facet normal -0.014849 0.819097 0.573462
outer loop
vertex -0.013205 0.015315 -0.004400
vertex -0.016546 0.012352 -0.000256
vertex -0.016993 0.010782 0.001975
endloop
endfacet
facet normal 0.074012 -0.465360 0.882022
outer loop
vertex -0.026842 0.010171 0.006999
vertex -0.019526 0.006329 0.004358
vertex -0.019565 0.007600 0.005032
endloop
endfacet
facet normal 0.269069 -0.242162 0.932180
outer loop
vertex -0.034787 0.012890 0.009999
vertex -0.026842 0.010171 0.006999
vertex -0.027444 0.011324 0.007472
endloop
endfacet
facet normal 0.254435 -0.293521 0.921471
outer loop
vertex -0.034787 0.012890 0.009999
vertex -0.027444 0.011324 0.007472
vertex -0.034277 0.013823 0.010155
endloop
endfacet
facet normal 0.144370 -0.310313 0.939608
outer loop
vertex -0.026842 0.010171 0.006999
vertex -0.019565 0.007600 0.005032
vertex -0.027444 0.011324 0.007472
endloop
endfacet
facet normal -0.433334 -0.894948 -0.106255
outer loop
vertex -0.027094 0.009812 0.005882
vertex -0.019403 0.006419 0.003097
vertex -0.019526 0.006329 0.004358
endloop
endfacet
facet normal -0.330794 -0.874179 0.355510
outer loop
vertex -0.019526 0.006329 0.004358
vertex -0.026842 0.010171 0.006999
vertex -0.027094 0.009812 0.005882
endloop
endfacet
facet normal -0.196614 -0.919668 0.339931
outer loop
vertex -0.027094 0.009812 0.005882
vertex -0.026842 0.010171 0.006999
vertex -0.035437 0.012754 0.009017
endloop
endfacet
facet normal -0.217530 -0.937068 0.273102
outer loop
vertex -0.035437 0.012754 0.009017
vertex -0.026842 0.010171 0.006999
vertex -0.034787 0.012890 0.009999
endloop
endfacet
facet normal -0.143152 -0.763148 -0.630168
outer loop
vertex -0.017573 0.009768 -0.001375
vertex -0.019324 0.005415 0.004294
vertex -0.019403 0.006419 0.003097
endloop
endfacet
facet normal -0.911442 0.405566 -0.069209
outer loop
vertex -0.015676 0.013471 -0.004667
vertex -0.017573 0.009768 -0.001375
vertex -0.019403 0.006419 0.003097
endloop
endfacet
facet normal -0.778363 -0.000439 -0.627814
outer loop
vertex -0.016546 0.012352 -0.000256
vertex -0.013205 0.015315 -0.004400
vertex -0.009370 0.017777 -0.009157
endloop
endfacet
facet normal -0.854026 -0.024319 -0.519661
outer loop
vertex -0.014234 0.014156 -0.007068
vertex -0.017573 0.009768 -0.001375
vertex -0.015676 0.013471 -0.004667
endloop
endfacet
facet normal -0.821458 0.434744 -0.369059
outer loop
vertex -0.011194 0.016622 -0.010931
vertex -0.014234 0.014156 -0.007068
vertex -0.015676 0.013471 -0.004667
endloop
endfacet
facet normal -0.841364 0.289682 -0.456280
outer loop
vertex -0.011194 0.016622 -0.010931
vertex -0.015676 0.013471 -0.004667
vertex -0.011357 0.017157 -0.010290
endloop
endfacet
facet normal -0.209765 0.723807 -0.657344
outer loop
vertex -0.009871 0.017546 -0.010336
vertex -0.011194 0.016622 -0.010931
vertex -0.011357 0.017157 -0.010290
endloop
endfacet
facet normal 0.445548 0.823741 -0.350626
outer loop
vertex -0.012415 0.019116 -0.009881
vertex -0.009370 0.017777 -0.009157
vertex -0.009871 0.017546 -0.010336
endloop
endfacet
facet normal 0.438405 0.864881 -0.244503
outer loop
vertex -0.009370 0.017777 -0.009157
vertex -0.012415 0.019116 -0.009881
vertex -0.013261 0.019972 -0.008366
endloop
endfacet
facet normal 0.047023 0.997307 0.056287
outer loop
vertex -0.020838 0.022217 -0.005024
vertex -0.024565 0.022346 -0.004200
vertex -0.030163 0.022322 0.000907
endloop
endfacet
facet normal -0.273715 0.915237 -0.295669
outer loop
vertex -0.030163 0.022322 0.000907
vertex -0.024565 0.022346 -0.004200
vertex -0.026660 0.021996 -0.003346
endloop
endfacet
facet normal 0.372352 0.881386 -0.290711
outer loop
vertex -0.012415 0.019116 -0.009881
vertex -0.015362 0.020826 -0.008469
vertex -0.013261 0.019972 -0.008366
endloop
endfacet
facet normal 0.359976 0.910219 0.204742
outer loop
vertex -0.013261 0.019972 -0.008366
vertex -0.015362 0.020826 -0.008469
vertex -0.020838 0.022217 -0.005024
endloop
endfacet
facet normal -0.008617 0.981155 -0.193030
outer loop
vertex -0.019457 0.021895 -0.006724
vertex -0.024565 0.022346 -0.004200
vertex -0.020838 0.022217 -0.005024
endloop
endfacet
facet normal -0.190971 0.954150 -0.230493
outer loop
vertex -0.030163 0.022322 0.000907
vertex -0.026660 0.021996 -0.003346
vertex -0.030998 0.022092 0.000646
endloop
endfacet
facet normal 0.265453 0.963561 0.032933
outer loop
vertex -0.020838 0.022217 -0.005024
vertex -0.015362 0.020826 -0.008469
vertex -0.019457 0.021895 -0.006724
endloop
endfacet
facet normal -0.641209 -0.278567 0.715018
outer loop
vertex -0.035076 0.013842 0.010111
vertex -0.035550 0.013419 0.009521
vertex -0.034787 0.012890 0.009999
endloop
endfacet
facet normal -0.057951 -0.134057 0.989278
outer loop
vertex -0.034787 0.012890 0.009999
vertex -0.034277 0.013823 0.010155
vertex -0.035076 0.013842 0.010111
endloop
endfacet
facet normal -0.682077 -0.512603 0.521545
outer loop
vertex -0.034787 0.012890 0.009999
vertex -0.035550 0.013419 0.009521
vertex -0.035437 0.012754 0.009017
endloop
endfacet
facet normal -0.067254 0.563817 -0.823157
outer loop
vertex -0.015362 0.020826 -0.008469
vertex -0.012415 0.019116 -0.009881
vertex -0.017283 0.020404 -0.008601
endloop
endfacet
facet normal -0.109026 0.713024 -0.692611
outer loop
vertex -0.015362 0.020826 -0.008469
vertex -0.017283 0.020404 -0.008601
vertex -0.019457 0.021895 -0.006724
endloop
endfacet
facet normal -0.350053 0.492666 -0.796708
outer loop
vertex -0.019457 0.021895 -0.006724
vertex -0.017283 0.020404 -0.008601
vertex -0.024565 0.022346 -0.004200
endloop
endfacet
facet normal -0.073730 0.165418 -0.983464
outer loop
vertex -0.012415 0.019116 -0.009881
vertex -0.009871 0.017546 -0.010336
vertex -0.011357 0.017157 -0.010290
endloop
endfacet
facet normal -0.502133 -0.356564 -0.787861
outer loop
vertex -0.026660 0.021996 -0.003346
vertex -0.017283 0.020404 -0.008601
vertex -0.031261 0.021191 -0.000049
endloop
endfacet
facet normal -0.529254 0.609840 -0.589902
outer loop
vertex -0.026660 0.021996 -0.003346
vertex -0.031261 0.021191 -0.000049
vertex -0.030998 0.022092 0.000646
endloop
endfacet
facet normal -0.234885 0.075346 -0.969099
outer loop
vertex -0.017283 0.020404 -0.008601
vertex -0.012415 0.019116 -0.009881
vertex -0.011357 0.017157 -0.010290
endloop
endfacet
facet normal -0.403259 0.377147 -0.833752
outer loop
vertex -0.024565 0.022346 -0.004200
vertex -0.017283 0.020404 -0.008601
vertex -0.026660 0.021996 -0.003346
endloop
endfacet
facet normal -0.795719 0.556143 0.239868
outer loop
vertex -0.033612 0.018035 0.005249
vertex -0.035550 0.013419 0.009521
vertex -0.035076 0.013842 0.010111
endloop
endfacet
facet normal -0.546581 0.708549 0.446327
outer loop
vertex -0.033612 0.018035 0.005249
vertex -0.035076 0.013842 0.010111
vertex -0.032977 0.018165 0.005820
endloop
endfacet
facet normal -0.021975 0.709709 0.704152
outer loop
vertex -0.032977 0.018165 0.005820
vertex -0.035076 0.013842 0.010111
vertex -0.034277 0.013823 0.010155
endloop
endfacet
facet normal 0.346661 0.608748 0.713619
outer loop
vertex -0.032977 0.018165 0.005820
vertex -0.034277 0.013823 0.010155
vertex -0.030163 0.022322 0.000907
endloop
endfacet
facet normal -0.367393 0.803112 0.469078
outer loop
vertex -0.032977 0.018165 0.005820
vertex -0.030163 0.022322 0.000907
vertex -0.030998 0.022092 0.000646
endloop
endfacet
facet normal -0.507663 0.768606 0.389259
outer loop
vertex -0.032977 0.018165 0.005820
vertex -0.030998 0.022092 0.000646
vertex -0.033612 0.018035 0.005249
endloop
endfacet
facet normal -0.950956 0.066376 -0.302120
outer loop
vertex -0.033673 0.017545 0.004518
vertex -0.035437 0.012754 0.009017
vertex -0.035550 0.013419 0.009521
endloop
endfacet
facet normal -0.949499 0.291634 -0.115764
outer loop
vertex -0.033673 0.017545 0.004518
vertex -0.035550 0.013419 0.009521
vertex -0.033612 0.018035 0.005249
endloop
endfacet
facet normal -0.905093 0.391854 -0.165099
outer loop
vertex -0.030998 0.022092 0.000646
vertex -0.031261 0.021191 -0.000049
vertex -0.033673 0.017545 0.004518
endloop
endfacet
facet normal -0.907036 0.381049 -0.179132
outer loop
vertex -0.030998 0.022092 0.000646
vertex -0.033673 0.017545 0.004518
vertex -0.033612 0.018035 0.005249
endloop
endfacet
facet normal -0.684031 -0.349460 -0.640296
outer loop
vertex -0.031261 0.021191 -0.000049
vertex -0.035437 0.012754 0.009017
vertex -0.033673 0.017545 0.004518
endloop
endfacet
facet normal -0.108264 0.645679 0.755895
outer loop
vertex 0.016368 0.013145 0.005032
vertex 0.015246 0.013746 0.004357
vertex 0.015746 0.012504 0.005490
endloop
endfacet
facet normal 0.169855 0.700540 0.693104
outer loop
vertex 0.015746 0.012504 0.005490
vertex 0.015246 0.013746 0.004357
vertex 0.014353 0.014028 0.004291
endloop
endfacet
facet normal 0.306766 0.946006 -0.104721
outer loop
vertex 0.015246 0.013746 0.004357
vertex 0.015265 0.013602 0.003113
vertex 0.014353 0.014028 0.004291
endloop
endfacet
facet normal 0.734491 -0.266669 0.624028
outer loop
vertex 0.018797 0.008577 0.000221
vertex 0.016368 0.013145 0.005032
vertex 0.015746 0.012504 0.005490
endloop
endfacet
facet normal 0.837492 -0.075507 0.541207
outer loop
vertex 0.018797 0.008577 0.000221
vertex 0.015746 0.012504 0.005490
vertex 0.018593 0.007801 0.000430
endloop
endfacet
facet normal -0.419459 0.208083 0.883604
outer loop
vertex 0.020444 0.017152 0.006023
vertex 0.015246 0.013746 0.004357
vertex 0.016368 0.013145 0.005032
endloop
endfacet
facet normal -0.308493 -0.155898 0.938364
outer loop
vertex 0.028648 0.023676 0.010077
vertex 0.023030 0.018583 0.007384
vertex 0.023495 0.018055 0.007449
endloop
endfacet
facet normal -0.359021 -0.104480 0.927463
outer loop
vertex 0.028648 0.023676 0.010077
vertex 0.023495 0.018055 0.007449
vertex 0.029113 0.022773 0.010156
endloop
endfacet
facet normal -0.597010 0.441521 0.669805
outer loop
vertex 0.023030 0.018583 0.007384
vertex 0.020444 0.017152 0.006023
vertex 0.016368 0.013145 0.005032
endloop
endfacet
facet normal -0.253879 -0.104897 0.961531
outer loop
vertex 0.023030 0.018583 0.007384
vertex 0.016368 0.013145 0.005032
vertex 0.023495 0.018055 0.007449
endloop
endfacet
facet normal -0.552815 0.826765 -0.104186
outer loop
vertex 0.021581 0.018133 0.005550
vertex 0.015265 0.013602 0.003113
vertex 0.015246 0.013746 0.004357
endloop
endfacet
facet normal -0.582975 0.782082 0.220199
outer loop
vertex 0.021581 0.018133 0.005550
vertex 0.015246 0.013746 0.004357
vertex 0.020444 0.017152 0.006023
endloop
endfacet
facet normal -0.701162 0.643960 0.306085
outer loop
vertex 0.028751 0.024297 0.009007
vertex 0.021581 0.018133 0.005550
vertex 0.028648 0.023676 0.010077
endloop
endfacet
facet normal -0.711311 0.560462 0.424168
outer loop
vertex 0.028648 0.023676 0.010077
vertex 0.021581 0.018133 0.005550
vertex 0.023030 0.018583 0.007384
endloop
endfacet
facet normal -0.567928 0.782103 0.256464
outer loop
vertex 0.023030 0.018583 0.007384
vertex 0.021581 0.018133 0.005550
vertex 0.020444 0.017152 0.006023
endloop
endfacet
facet normal -0.569954 0.526014 -0.631239
outer loop
vertex 0.017239 0.010340 -0.001388
vertex 0.014353 0.014028 0.004291
vertex 0.015265 0.013602 0.003113
endloop
endfacet
facet normal 0.744201 0.651795 -0.146043
outer loop
vertex 0.019102 0.007683 -0.003752
vertex 0.017239 0.010340 -0.001388
vertex 0.015265 0.013602 0.003113
endloop
endfacet
facet normal 0.927465 -0.152808 0.341260
outer loop
vertex 0.020025 0.002201 -0.005969
vertex 0.018797 0.008577 0.000221
vertex 0.018593 0.007801 0.000430
endloop
endfacet
facet normal 0.287691 0.695064 -0.658878
outer loop
vertex 0.018797 0.008577 0.000221
vertex 0.020025 0.002201 -0.005969
vertex 0.020109 -0.000581 -0.008868
endloop
endfacet
facet normal 0.369338 0.748701 -0.550488
outer loop
vertex 0.019441 0.005167 -0.006946
vertex 0.017239 0.010340 -0.001388
vertex 0.019102 0.007683 -0.003752
endloop
endfacet
facet normal 0.365584 0.672486 -0.643515
outer loop
vertex 0.020068 0.001105 -0.010835
vertex 0.019441 0.005167 -0.006946
vertex 0.020764 0.001288 -0.010248
endloop
endfacet
facet normal 0.740815 0.563667 -0.365340
outer loop
vertex 0.020764 0.001288 -0.010248
vertex 0.019441 0.005167 -0.006946
vertex 0.019102 0.007683 -0.003752
endloop
endfacet
facet normal -0.729153 -0.663808 -0.166416
outer loop
vertex 0.020109 -0.000581 -0.008868
vertex 0.020120 -0.000225 -0.010338
vertex 0.020261 -0.000560 -0.009618
endloop
endfacet
facet normal 0.661847 -0.239303 -0.710417
outer loop
vertex 0.020120 -0.000225 -0.010338
vertex 0.020068 0.001105 -0.010835
vertex 0.020764 0.001288 -0.010248
endloop
endfacet
facet normal 0.476248 -0.757901 -0.445840
outer loop
vertex 0.024066 0.001513 -0.009077
vertex 0.020261 -0.000560 -0.009618
vertex 0.020120 -0.000225 -0.010338
endloop
endfacet
facet normal 0.469405 -0.880118 0.071078
outer loop
vertex 0.020261 -0.000560 -0.009618
vertex 0.024066 0.001513 -0.009077
vertex 0.023928 0.001498 -0.008361
endloop
endfacet
facet normal 0.469774 -0.880020 0.069842
outer loop
vertex 0.020261 -0.000560 -0.009618
vertex 0.023928 0.001498 -0.008361
vertex 0.020109 -0.000581 -0.008868
endloop
endfacet
facet normal 0.655209 -0.747433 0.109750
outer loop
vertex 0.023928 0.001498 -0.008361
vertex 0.024066 0.001513 -0.009077
vertex 0.030046 0.007401 -0.004680
endloop
endfacet
facet normal 0.730959 -0.566985 -0.379774
outer loop
vertex 0.024066 0.001513 -0.009077
vertex 0.026675 0.004439 -0.008424
vertex 0.028692 0.005902 -0.006727
endloop
endfacet
facet normal 0.858680 -0.455900 -0.234147
outer loop
vertex 0.028692 0.005902 -0.006727
vertex 0.032498 0.010985 -0.002665
vertex 0.030046 0.007401 -0.004680
endloop
endfacet
facet normal 0.859155 -0.332512 -0.388958
outer loop
vertex 0.028692 0.005902 -0.006727
vertex 0.032121 0.011245 -0.003718
vertex 0.032498 0.010985 -0.002665
endloop
endfacet
facet normal 0.917706 -0.154503 -0.365983
outer loop
vertex 0.032498 0.010985 -0.002665
vertex 0.032121 0.011245 -0.003718
vertex 0.034634 0.015813 0.000653
endloop
endfacet
facet normal 0.843697 -0.502699 0.188333
outer loop
vertex 0.032498 0.010985 -0.002665
vertex 0.034634 0.015813 0.000653
vertex 0.034366 0.015770 0.001741
endloop
endfacet
facet normal 0.578987 -0.662950 0.474627
outer loop
vertex 0.032498 0.010985 -0.002665
vertex 0.034366 0.015770 0.001741
vertex 0.030046 0.007401 -0.004680
endloop
endfacet
facet normal 0.651412 -0.749535 0.117728
outer loop
vertex 0.030046 0.007401 -0.004680
vertex 0.024066 0.001513 -0.009077
vertex 0.028692 0.005902 -0.006727
endloop
endfacet
facet normal 0.177750 0.175462 0.968307
outer loop
vertex 0.029613 0.023808 0.009876
vertex 0.028648 0.023676 0.010077
vertex 0.029113 0.022773 0.010156
endloop
endfacet
facet normal -0.014125 0.865505 0.500702
outer loop
vertex 0.029613 0.023808 0.009876
vertex 0.028751 0.024297 0.009007
vertex 0.028648 0.023676 0.010077
endloop
endfacet
facet normal 0.414730 -0.325385 -0.849778
outer loop
vertex 0.024066 0.001513 -0.009077
vertex 0.020120 -0.000225 -0.010338
vertex 0.023953 0.002885 -0.009658
endloop
endfacet
facet normal 0.528601 -0.293402 -0.796553
outer loop
vertex 0.024066 0.001513 -0.009077
vertex 0.023953 0.002885 -0.009658
vertex 0.026675 0.004439 -0.008424
endloop
endfacet
facet normal 0.628933 0.033686 -0.776729
outer loop
vertex 0.028692 0.005902 -0.006727
vertex 0.026675 0.004439 -0.008424
vertex 0.032121 0.011245 -0.003718
endloop
endfacet
facet normal 0.193457 -0.024062 -0.980814
outer loop
vertex 0.023953 0.002885 -0.009658
vertex 0.020120 -0.000225 -0.010338
vertex 0.020764 0.001288 -0.010248
endloop
endfacet
facet normal 0.520158 0.362729 -0.773216
outer loop
vertex 0.031787 0.012087 -0.003548
vertex 0.034052 0.016484 0.000038
vertex 0.032121 0.011245 -0.003718
endloop
endfacet
facet normal 0.789916 0.137446 -0.597613
outer loop
vertex 0.032121 0.011245 -0.003718
vertex 0.034052 0.016484 0.000038
vertex 0.034634 0.015813 0.000653
endloop
endfacet
facet normal 0.358486 0.319532 -0.877147
outer loop
vertex 0.032121 0.011245 -0.003718
vertex 0.026675 0.004439 -0.008424
vertex 0.031787 0.012087 -0.003548
endloop
endfacet
facet normal 0.126347 0.471784 -0.872614
outer loop
vertex 0.031787 0.012087 -0.003548
vertex 0.026675 0.004439 -0.008424
vertex 0.023953 0.002885 -0.009658
endloop
endfacet
facet normal 0.809633 -0.105605 0.577358
outer loop
vertex 0.032428 0.020093 0.005249
vertex 0.029613 0.023808 0.009876
vertex 0.034366 0.015770 0.001741
endloop
endfacet
facet normal 0.752116 -0.193026 0.630129
outer loop
vertex 0.034366 0.015770 0.001741
vertex 0.029613 0.023808 0.009876
vertex 0.029113 0.022773 0.010156
endloop
endfacet
facet normal 0.943479 0.227141 0.241359
outer loop
vertex 0.034366 0.015770 0.001741
vertex 0.034634 0.015813 0.000653
vertex 0.032428 0.020093 0.005249
endloop
endfacet
facet normal 0.626814 0.753767 -0.197333
outer loop
vertex 0.032032 0.020396 0.004527
vertex 0.028751 0.024297 0.009007
vertex 0.029613 0.023808 0.009876
endloop
endfacet
facet normal 0.722189 0.683038 -0.109093
outer loop
vertex 0.032032 0.020396 0.004527
vertex 0.029613 0.023808 0.009876
vertex 0.032428 0.020093 0.005249
endloop
endfacet
facet normal 0.807167 0.574171 -0.137149
outer loop
vertex 0.034634 0.015813 0.000653
vertex 0.034052 0.016484 0.000038
vertex 0.032032 0.020396 0.004527
endloop
endfacet
facet normal 0.782970 0.595762 -0.178957
outer loop
vertex 0.034634 0.015813 0.000653
vertex 0.032032 0.020396 0.004527
vertex 0.032428 0.020093 0.005249
endloop
endfacet
facet normal -0.002153 0.753429 -0.657526
outer loop
vertex 0.034052 0.016484 0.000038
vertex 0.028751 0.024297 0.009007
vertex 0.032032 0.020396 0.004527
endloop
endfacet
endsolid Exported from Blender-2.93.4
